<?xml version="1.0" encoding="UTF-8"?>
<svg width="26px" height="25px" viewBox="0 0 26 25" version="1.1" xmlns="http://www.w3.org/2000/svg" xmlns:xlink="http://www.w3.org/1999/xlink">
    <!-- Generator: Sketch 51.2 (57519) - http://www.bohemiancoding.com/sketch -->
    <title>Accueil</title>
    <desc>Created with Sketch.</desc>
    <defs></defs>
    <g id="Symbols" stroke="none" stroke-width="1" fill="none" fill-rule="evenodd">
        <g id="header/desktop-large" transform="translate(-310.000000, -119.000000)" fill="#E5004D" stroke="#E5004D" stroke-width="0.700000048">
            <g id="Header" transform="translate(296.000000, 14.000000)">
                <g id="Accueil" transform="translate(11.000000, 102.000000)">
                    <g id="icon/pink/header/accueil">
                        <path d="M27.5628427,14.307 L24.0159491,11.082 L24.0159491,5.801 L19.9308427,5.801 L19.9308427,7.3695 L15.8457363,3.6545 L4.12914054,14.307 C3.96573629,14.457 3.95552352,14.711 4.10922565,14.873 C4.26292778,15.0355 4.52028948,15.043 4.68573629,14.893 L6.04199161,13.6605 L6.04199161,27 L25.649481,27 L25.649481,13.6605 L27.0062469,14.893 C27.0838639,14.965 27.185481,15 27.2855661,15 C27.3948427,15 27.5025874,14.957 27.5848001,14.873 C27.7379916,14.711 27.7282895,14.457 27.5628427,14.307 Z M20.7488852,6.6 L23.1984171,6.6 L23.1984171,10.34 L20.7488852,8.1115 L20.7488852,6.6 Z M13.3941618,26.2015 L13.3941618,17.7755 C13.3941618,17.5685 13.5657363,17.4005 13.7771405,17.4005 L17.914332,17.4005 C18.1257363,17.4005 18.2973108,17.5685 18.2973108,17.7755 L18.2973108,26.2015 L13.3941618,26.2015 Z M24.8339916,26.2015 L19.1133108,26.2015 L19.1133108,17.7755 C19.1133108,17.127 18.5766299,16.6 17.914332,16.6 L13.7771405,16.6 C13.1153533,16.6 12.5786725,17.127 12.5786725,17.7755 L12.5786725,26.2015 L6.85799161,26.2015 L6.85799161,12.918 L15.8457363,4.7465 L24.8339916,12.918 L24.8339916,26.2015 Z" id="home"></path>
                    </g>
                </g>
            </g>
        </g>
    </g>
</svg>