<svg xmlns="http://www.w3.org/2000/svg" width="24" height="28"><g fill="none" fill-rule="evenodd"><path stroke="#E5004D" stroke-linecap="round" stroke-width="1.5" d="M14.618 24.221a2.883 2.883 0 0 0 2.885 2.885 2.888 2.888 0 0 0 2.884-2.885 2.888 2.888 0 0 0-2.884-2.884 2.883 2.883 0 0 0-2.885 2.884zm-10.39 0a2.888 2.888 0 0 0 2.885 2.885 2.883 2.883 0 0 0 2.884-2.885 2.883 2.883 0 0 0-2.884-2.884 2.888 2.888 0 0 0-2.885 2.884zm18.501-13.806c-2.002 4.404-2.64 6.301-3.516 7.272-.775.86-1.878 1.031-2.222 1.031h-7.23c-2.53 0-4.467-1.542-4.939-3.936-.013-.073-1.446-7.36-1.812-9.397-.177-.998-.636-1.667-2.28-1.667"/><path fill="#EA094B" stroke="#EA094B" stroke-width=".6" d="M8.54 4.42a.698.698 0 0 0 .215-.494.698.698 0 0 0-.197-.5.698.698 0 0 0-.493-.215.698.698 0 0 0-.5.197.698.698 0 0 0-.215.494.698.698 0 0 0 .197.5.698.698 0 0 0 .994.017zm-1.283.262c.205.212.48.332.776.337.295.006.575-.105.787-.31.213-.205.333-.48.338-.776a1.098 1.098 0 0 0-.31-.787 1.099 1.099 0 0 0-.776-.338 1.107 1.107 0 0 0-.815 1.874zm-.832-2.453a4.13 4.13 0 0 0-.102 5.835 4.1 4.1 0 0 0 2.897 1.26 4.112 4.112 0 0 0 1.787-.37l1.263 1.307a.202.202 0 0 0 .29-.28l-1.18-1.222c.172-.102.338-.216.496-.344l.016-.013a4.16 4.16 0 0 0 .16-.136l.023-.021a4.31 4.31 0 0 0 .162-.156l.026-.028a4.105 4.105 0 0 0 .08-.085l.04-.044.017-.02 5.94 6.151.002.496s0 .003-.003.006l-.006.002-1.39-.052a.008.008 0 0 1-.006-.002l-.252-.26a.009.009 0 0 1-.002-.005l-.15-.974a.412.412 0 0 0-.33-.341l-.888-.17a.008.008 0 0 1-.007-.006l-.138-.894a.412.412 0 0 0-.33-.341l-.967-.184a.008.008 0 0 1-.005-.003l-.428-.443a.201.201 0 0 0-.29.28l.428.443c.06.062.135.103.22.119l.968.184c.003 0 .006.003.006.007l.138.893a.412.412 0 0 0 .33.342l.888.168c.003.001.006.004.007.007l.15.974a.41.41 0 0 0 .11.223l.252.26a.41.41 0 0 0 .28.126l1.39.052a.413.413 0 0 0 .427-.412l-.003-1.392a.41.41 0 0 0-.115-.284L12.984 7.04a4.12 4.12 0 0 0-.305-4.203.201.201 0 0 0-.33.231 3.724 3.724 0 0 1-.362 4.699l-.02.019a3.758 3.758 0 0 1-.406.363l-.007.006a3.705 3.705 0 0 1-.594.372l-.008.005a3.706 3.706 0 0 1-1.725.387 3.7 3.7 0 0 1-2.614-1.136 3.724 3.724 0 1 1 4.899-5.577.202.202 0 0 0 .241-.323 4.13 4.13 0 0 0-5.328.345zm6.227 5.365c.044-.061.086-.123.126-.187l5.558 5.755a.008.008 0 0 1 .002.005l.001.315-5.687-5.888z"/></g></svg>