<svg xmlns="http://www.w3.org/2000/svg" width="130" height="42"><g fill="none" fill-rule="nonzero"><g fill="#181716"><path d="M46.66 41.615h.515v-3.817h-.515v3.817zm-.016-4.69h.54v-.645h-.54v.644zM48.572 37.798h.507v.57c0 .166-.014.302-.014.302h.014c.233-.564.773-.94 1.382-.964.706 0 1.069.327 1.183.951h.016a1.55 1.55 0 0 1 1.402-.951c.926 0 1.268.54 1.268 1.481v2.428h-.518v-2.3c0-.623-.128-1.138-.827-1.138-.584 0-1.062.515-1.207 1.078a1.84 1.84 0 0 0-.068.554v1.806h-.513v-2.3c0-.577-.084-1.138-.806-1.138-.621 0-1.092.54-1.25 1.123a2.221 2.221 0 0 0-.054.509v1.806h-.515v-3.817zM55.532 37.798h.509v.57c0 .1-.006.202-.016.302h.016c.233-.563.772-.94 1.38-.964.706 0 1.07.327 1.185.951h.014c.238-.567.79-.94 1.404-.951.924 0 1.268.54 1.268 1.481v2.428h-.516v-2.3c0-.623-.129-1.138-.826-1.138-.585 0-1.062.515-1.207 1.078-.051.18-.074.367-.068.554v1.806h-.516v-2.3c0-.577-.083-1.138-.804-1.138-.623 0-1.092.54-1.252 1.123a2.221 2.221 0 0 0-.053.509v1.806h-.516l-.002-3.817zM64.184 37.706a2 2 0 1 1-2.018 1.98 1.977 1.977 0 0 1 2.018-1.98m0 3.538a1.506 1.506 0 0 0 1.487-1.557 1.487 1.487 0 1 0-2.974 0 1.507 1.507 0 0 0 1.487 1.557M67.127 36.28h.517v1.85c0 .107-.005.213-.016.318h.016a1.382 1.382 0 0 1 1.297-.737c1.024 0 1.66.82 1.66 2.004 0 1.185-.719 1.997-1.72 1.997a1.39 1.39 0 0 1-1.253-.744h-.014s.014.129.014.317v.341h-.5V36.28zm1.715 4.97c.676 0 1.229-.569 1.229-1.54 0-.934-.493-1.533-1.206-1.533-.634 0-1.237.455-1.237 1.541 0 .766.395 1.532 1.214 1.532zM71.596 36.28h.539v.644h-.54v-.644zm.016 1.518h.515v3.817h-.515v-3.817zM73.346 36.28h.515V40.6c0 .5.228.577.425.577.043 0 .086-.003.128-.008v.463c-.062.01-.125.014-.189.014-.317 0-.88-.098-.88-.932V36.28zM75.254 36.28h.54v.644h-.54v-.644zm.014 1.518h.517v3.817h-.517v-3.817zM78.797 37.706c1.054 0 1.585.812 1.585 1.762 0 .09-.016.265-.016.265h-2.92c.023.98.69 1.511 1.48 1.511.43-.008.842-.173 1.16-.463l.236.395a2.19 2.19 0 0 1-1.41.531 1.929 1.929 0 0 1-1.997-1.997c0-1.252.85-2.004 1.882-2.004zm1.07 1.602c-.032-.793-.517-1.17-1.086-1.17-.634 0-1.19.404-1.312 1.17h2.398zM81.373 37.798h.509v.675c0 .102-.006.203-.016.303h.016c.182-.577.607-1.016 1.206-1.016.069 0 .137.008.204.022v.51a1.242 1.242 0 0 0-.19-.017c-.537 0-.94.425-1.11.987a2.52 2.52 0 0 0-.106.743v1.61h-.516l.003-3.817z"/></g><g fill="#181716"><path d="M27.221 25.976V2.274h-5.607v24.551c0 6.535 3.87 7.341 6.987 7.341.519-.004 1.037-.038 1.553-.102-1.95-1.97-2.593-4.742-2.797-6.62a6.693 6.693 0 0 1-.136-1.468zM10.936 34.135c5.32 0 9.253-4.195 9.253-10.664 0-6.313-3.496-10.668-8.975-10.668-4.766 0-6.517 3.358-6.517 3.358h-.079c.052-.465.079-.932.08-1.4V12.87H.092v28.325c5.063-.06 5.044-4.243 5.044-4.243V33.1c0-1.04-.08-1.759-.08-1.759h.08s1.787 2.793 5.8 2.793M5.028 23.402c0-4.56 2.487-6.498 5.136-6.498 3.01 0 5.1 2.543 5.1 6.458 0 4.079-2.329 6.378-5.136 6.378-3.372 0-5.1-3.134-5.1-6.338M74.691 12.82c-4.703 0-7.366 1.861-7.98 5.663h5.127c.284-.969 1.272-1.425 3.086-1.425 2.119 0 3.198.584 3.314 1.747 0 1.126-1.116 1.784-3.314 2.055-5.168.505-8.715 1.824-8.831 6.749 0 4.246 2.977 6.526 7.38 6.47h9.823V18.482c-.117-3.802-2.97-5.663-8.6-5.663m-3.552 14.623c0-1.513 1.04-2.482 3.085-2.87a22.092 22.092 0 0 0 4.086-1.242v1.9c0 2.92-1.734 4.63-4.587 4.63-1.62 0-2.468-.776-2.584-2.406"/><path d="M64.656 29.512H54.578L65.866 17.35v-4.56H46.124a6.172 6.172 0 0 1 2.55 3.172c.19.607.315 1.052.388 1.334l6.015-.02h4.12L47.83 29.915v4.243h19.883a5.986 5.986 0 0 1-3.06-4.646M37.752 12.795c-4.728 0-7.403 1.872-8.023 5.7h5.156c.283-.975 1.278-1.445 3.1-1.445 2.133 0 3.218.587 3.334 1.755 0 1.14-1.133 1.793-3.334 2.066-5.194.508-8.76 1.833-8.877 6.783 0 4.275 2.995 6.555 7.42 6.515h9.868V18.495c-.116-3.822-2.983-5.7-8.644-5.7m-3.564 14.7c0-1.522 1.045-2.497 3.1-2.887a22.061 22.061 0 0 0 4.108-1.246v1.91c0 2.924-1.746 4.64-4.613 4.64-1.626 0-2.479-.779-2.595-2.417"/></g><g fill="#E5004B"><path d="M31.344 7.528a2.94 2.94 0 0 0 1.97.8c.57 0 1.139-.297 1.139-.855-.005-1.262-3.53-1.005-3.53-3.243 0-1.25 1.113-1.955 2.482-1.955 1.5 0 2.208.76 2.208.76l-.528.99s-.61-.612-1.695-.612c-.569 0-1.125.245-1.125.846 0 1.235 3.524.964 3.524 3.218 0 1.141-.976 1.997-2.48 1.997-1.68-.004-2.602-1.009-2.602-1.009l.637-.937zM37.12 3.59h-.893V2.53h.938V.549h1.27v1.983h1.654V3.59h-1.654v3.055c0 1.372.963 1.548 1.464 1.548.105.002.21-.008.312-.027v1.168a3.597 3.597 0 0 1-.46.027c-.881 0-2.627-.272-2.627-2.566L37.12 3.59zM47.537 2.436h1.206v.583c0 .168-.009.336-.027.503h.027s.583-1.249 2.305-1.249c1.842 0 3.008 1.466 3.008 3.598 0 2.186-1.313 3.599-3.103 3.599-1.501 0-2.102-1.128-2.102-1.128h-.026s.026.244.026.597v2.693h-1.313l-.001-9.196zm3.212 5.907c1.085 0 1.979-.897 1.979-2.458 0-1.494-.8-2.459-1.938-2.459-1.032 0-1.98.72-1.98 2.473 0 1.222.678 2.444 1.94 2.444zM54.616.017h1.313v3.22c0 .326-.026.57-.026.57h.026c.298-.665 1.166-1.534 2.533-1.534 1.613 0 2.358.883 2.358 2.632v4.401h-1.31v-4.1c0-.965-.205-1.728-1.303-1.728-1.032 0-1.884.706-2.168 1.698a3.21 3.21 0 0 0-.109.91v3.22h-1.313l-.001-9.29zM65.454 5.016h.297v-.122c0-1.128-.637-1.504-1.5-1.504-1.058 0-1.912.665-1.912.665l-.542-.964a4.3 4.3 0 0 1 2.561-.814c1.736 0 2.711.95 2.711 2.688v4.341h-1.22v-.651c0-.182.009-.363.027-.543h-.026a2.373 2.373 0 0 1-2.197 1.358c-1.178 0-2.33-.72-2.33-2.092 0-2.267 2.982-2.362 4.134-2.362M63.936 8.41c1.11 0 1.83-1.167 1.83-2.186v-.217h-.34c-.99 0-2.778.067-2.778 1.304 0 .556.434 1.1 1.288 1.1M67.812 2.436h1.275v.91c0 .167-.01.335-.028.502h.028c.27-.597 1.084-1.575 2.575-1.575 1.613 0 2.358.883 2.358 2.632v4.401h-1.314v-4.1c0-.965-.203-1.725-1.301-1.725-1.044-.003-1.884.693-2.17 1.69-.08.3-.116.61-.108.922v3.213h-1.314v-6.87zM78.052 2.273c1.938 0 2.969 1.44 2.969 3.218 0 .176-.042.57-.042.57h-5c.067 1.504 1.138 2.268 2.357 2.268 1.18 0 2.034-.801 2.034-.801l.542.964c-.74.633-1.683.98-2.656.978-2.158 0-3.633-1.562-3.633-3.599 0-2.186 1.478-3.598 3.43-3.598zm1.63 2.797c-.04-1.181-.772-1.752-1.653-1.752-1.007 0-1.819.624-2.006 1.752h3.659zM43.946 2.273c1.939 0 2.969 1.44 2.969 3.218 0 .176-.04.57-.04.57h-5.003C41.94 7.565 43.01 8.33 44.23 8.33c1.179 0 2.033-.801 2.033-.801l.542.964a4.08 4.08 0 0 1-2.657.978c-2.158 0-3.632-1.562-3.632-3.599 0-2.186 1.477-3.598 3.428-3.598h.001zm1.626 2.797c-.041-1.181-.772-1.752-1.652-1.752-1.003 0-1.816.624-2.006 1.752h3.658zM42.248.548h2.938v1h-2.938z"/></g><path fill="#E5004B" d="M98.33 5.827h16.005c7.585 0 12.116 3.753 12.116 10.038v.094c0 6.464-4.693 10.324-12.59 10.324h-5.27l-5.215 5.315-1.58 1.668V21.489l7.668-6.235 8.474 5.506c.491.36 1.136.43 1.691.183a1.715 1.715 0 0 0 .314-2.946l-10.456-6.975-11.1 8.705V41.82l7.419-7.827 4.206-4.29h3.848c4.576 0 8.482-1.185 11.3-3.43 3.072-2.446 4.694-6.012 4.694-10.313v-.094c0-4.127-1.512-7.573-4.37-9.964-2.73-2.287-6.586-3.496-11.15-3.496H98.33v3.422z"/><path fill="#C81344" d="M98.33 19.712l11.1-8.69 10.456 6.975a1.674 1.674 0 0 1 .282 2.502c-.394.335-1.085 1.048-2.29.261l-8.477-5.506-7.668 6.222-3.403-1.764z"/></g></svg>