<svg xmlns="http://www.w3.org/2000/svg" width="512" height="342"><g fill="none" fill-rule="nonzero"><path fill="#FFF" d="M0 .333h512V341.67H0z"/><path fill="#D80027" d="M288 .33h-64v138.666H0v64h224v138.666h64V202.996h224v-64H288z"/><path fill="#072C70" d="M393.785 230.358L512 296.034v-65.676z"/><path fill="#0052B4" d="M311.652 230.358L512 341.662v-31.474l-143.693-79.83z"/><path fill="#072C70" d="M458.634 341.662l-146.982-81.664v81.664z"/><path fill="#F0F0F0" d="M311.652 230.358L512 341.662v-31.474l-143.693-79.83z"/><path fill="#D80027" d="M311.652 230.358L512 341.662v-31.474l-143.693-79.83z"/><g fill="#072C70"><path d="M90.341 230.356L0 280.546v-50.19zM200.348 244.51v97.151H25.491z"/></g><path fill="#D80027" d="M143.693 230.358L0 310.188v31.474l200.348-111.304z"/><path fill="#072C70" d="M118.215 111.634L0 45.958v65.676z"/><path fill="#0052B4" d="M200.348 111.634L0 .33v31.474l143.693 79.83z"/><path fill="#072C70" d="M53.366.33l146.982 81.664V.33z"/><path fill="#F0F0F0" d="M200.348 111.634L0 .33v31.474l143.693 79.83z"/><path fill="#D80027" d="M200.348 111.634L0 .33v31.474l143.693 79.83z"/><g fill="#072C70"><path d="M421.659 111.636L512 61.446v50.19zM311.652 97.482V.331h174.857z"/></g><path fill="#D80027" d="M368.307 111.634L512 31.804V.33L311.652 111.634z"/></g></svg>