<?xml version="1.0" encoding="UTF-8"?>
<svg width="72px" height="88px" viewBox="0 0 72 88" version="1.1" xmlns="http://www.w3.org/2000/svg" xmlns:xlink="http://www.w3.org/1999/xlink">
    <!-- Generator: Sketch 51.2 (57519) - http://www.bohemiancoding.com/sketch -->
    <title>Group 3</title>
    <desc>Created with Sketch.</desc>
    <defs></defs>
    <g id="Symbols" stroke="none" stroke-width="1" fill="none" fill-rule="evenodd" opacity="0.5">
        <g id="Footer/desktop" transform="translate(-125.000000, -82.000000)" fill="#FFFFFF">
            <g id="Footer">
                <g id="Page-1" transform="translate(117.000000, 82.000000)">
                    <g id="Group-3" transform="translate(0.000000, 0.307000)">
                        <g id="logo/picto-gray">
                            <path d="M8.8,0 L45.4707647,0 C55.572,0 64.1384118,2.69952941 70.1864706,7.733 C76.5224706,13.0032941 79.8897647,20.6314706 79.8897647,29.7245882 C79.8897647,39.4091176 76.2765882,47.3200588 69.4740588,52.7048824 C63.2267059,57.6529412 54.5528824,60.3207647 44.4173529,60.3207647 L35.8871765,60.3207647 L26.5455882,69.7115294 L10.0915294,86.9051765 L10.0915294,38.2353529 L34.7056471,19.085 L57.8832941,34.4539412 C59.5656471,35.6807647 59.9377059,38.0386471 58.7089412,39.721 C57.4795294,41.4033529 55.1268235,41.7702353 53.4444706,40.5408235 L34.7606471,28.3845294 L17.8452353,42.1215882 L17.8452353,68.0615294 L21.263,64.3292941 L32.7431176,52.5638235 L44.4173529,52.5638235 C61.8847059,52.5638235 72.1334706,44.1734118 72.1334706,29.9361765 C72.1334706,15.8827059 62.2729412,7.75629412 45.4707647,7.75629412 L8.8,7.75629412 L8.8,0 Z" id="Combined-Shape"></path>
                        </g>
                    </g>
                </g>
            </g>
        </g>
    </g>
</svg>