<svg xmlns="http://www.w3.org/2000/svg" width="19" height="27"><path fill="#E5004D" fill-rule="evenodd" d="M9.603.836H1.797a.928.928 0 1 0 0 1.857h7.806c4.14 0 6.612 2.036 6.612 5.446 0 3.56-2.568 5.653-6.87 5.653l-5.052.04v9.895l-1.523 1.33-.012-13.865L6.946 7.81l3.049 1.974 1.575 1.02a1.501 1.501 0 0 0 .195.107c.339.15.592.079.781-.037a.914.914 0 0 0 .245-.188c.035-.033.04-.043.048-.053.044-.053.054-.077.068-.1.038-.067.053-.092.064-.118.212-.453.002-.798-.16-.976-.089-.093-.146-.134-.146-.134l-.563-.373-5.143-3.413-5.81 4.523-.25.194v5.342l.006 1.126c0 .157.06.485.175.593l1.027.698-1.065 1.004a.554.554 0 0 0-.177.41.55.55 0 0 0 .178.406l1.074.998-1.068 1a.57.57 0 0 0-.177.41c.001.156.052.29.18.41l1.072.995-1.066 1.003a.557.557 0 0 0 .033.844l1.765 1.404c.238.19.585.154.781-.08l2.085-2.118a.547.547 0 0 0 .128-.36l-.056-8.69 1.45.02h2.1c2.497 0 4.63-.644 6.167-1.863 1.677-1.327 2.56-3.263 2.56-5.596 0-2.291-.823-4.162-2.384-5.46-1.49-1.24-3.595-1.895-6.084-1.895z"/></svg>