<?xml version="1.0" encoding="UTF-8"?>
<svg width="24px" height="25px" viewBox="0 0 24 25" version="1.1" xmlns="http://www.w3.org/2000/svg" xmlns:xlink="http://www.w3.org/1999/xlink">
    <!-- Generator: Sketch 52.5 (67469) - http://www.bohemiancoding.com/sketch -->
    <title>Fill 1</title>
    <desc>Created with Sketch.</desc>
    <g id="Pages" stroke="none" stroke-width="1" fill="none" fill-rule="evenodd">
        <g id="02---Restitution-de-recherche-acheter---Mobile" transform="translate(-19.000000, -95.000000)" fill="#555555">
            <g id="Section-1---Modifiez-votre-recherche" transform="translate(0.000000, 78.000000)">
                <g id="icon/header/accueil-copy-7" transform="translate(19.000000, 17.000000)">
                    <path d="M23.375691,22.5445298 L17.5920347,16.4739106 C19.0795501,14.6883077 19.8945102,12.4424423 19.8945102,10.1045245 C19.8945102,4.64328199 15.4922325,0.2 10.079255,0.2 C4.66894433,0.2 0.266666667,4.64328199 0.266666667,10.1045245 C0.266666667,15.567382 4.66894433,20.010664 10.079255,20.010664 C12.1107883,20.010664 14.0484518,19.3926742 15.7023727,18.2169863 L21.5318972,24.3360542 C21.7756385,24.5928322 22.1025826,24.7333333 22.4551275,24.7333333 C22.7863383,24.7333333 23.100482,24.6052135 23.3404898,24.3721215 C23.8509066,23.877945 23.865307,23.0597007 23.375691,22.5445298 Z M10.079255,2.78446775 C14.0793862,2.78446775 17.3338929,6.06928804 17.3338929,10.1045245 C17.3338929,14.1419142 14.0793862,17.4261962 10.079255,17.4261962 C6.0812573,17.4261962 2.82728395,14.1419142 2.82728395,10.1045245 C2.82728395,6.06928804 6.0812573,2.78446775 10.079255,2.78446775 Z" id="Fill-1"></path>
                </g>
            </g>
        </g>
    </g>
</svg>