<svg xmlns="http://www.w3.org/2000/svg" xmlns:xlink="http://www.w3.org/1999/xlink" width="25" height="22"><defs><path id="a" d="M15.5 26c-.356 0-.699-.128-.967-.36a288.81 288.81 0 0 0-2.842-2.417l-.005-.004c-2.518-2.123-4.693-3.957-6.206-5.763C3.788 15.437 3 13.523 3 11.432c0-2.032.704-3.907 1.983-5.279C6.277 4.765 8.053 4 9.984 4c1.443 0 2.765.451 3.928 1.341.587.45 1.119 1 1.588 1.64.469-.64 1-1.19 1.588-1.64C18.252 4.451 19.573 4 21.016 4c1.93 0 3.707.765 5 2.153C27.297 7.525 28 9.4 28 11.432c0 2.09-.788 4.005-2.48 6.024-1.513 1.806-3.687 3.64-6.206 5.762-.86.725-1.836 1.548-2.848 2.423-.267.231-.61.359-.966.359z"/></defs><g fill="none" fill-rule="evenodd" transform="translate(-3 -4)"><use fill="#FFF" xlink:href="#a"/><path stroke="#EA094B" stroke-width="1.2" d="M15.5 25.4a.877.877 0 0 0 .574-.213c.842-.728 1.53-1.313 2.853-2.428 3.577-3.014 4.891-4.205 6.134-5.688 1.606-1.917 2.339-3.699 2.339-5.64 0-1.883-.65-3.61-1.822-4.869C24.398 5.296 22.78 4.6 21.016 4.6c-1.31 0-2.504.408-3.563 1.218a7.385 7.385 0 0 0-1.469 1.518l-.484.662-.484-.662a7.394 7.394 0 0 0-1.469-1.518C12.488 5.008 11.295 4.6 9.984 4.6c-1.765 0-3.382.696-4.562 1.962C4.25 7.821 3.6 9.548 3.6 11.432c0 1.94.733 3.722 2.34 5.639 1.242 1.483 2.555 2.672 6.142 5.697l-.005-.004a269.569 269.569 0 0 1 2.85 2.423.876.876 0 0 0 .573.213z"/></g></svg>