<svg xmlns="http://www.w3.org/2000/svg" width="35" height="35"><defs><linearGradient id="a" x1="50%" x2="50%" y1="0%" y2="100%"><stop offset="0%" stop-color="#7244CB"/><stop offset="51.136%" stop-color="#F44D59"/><stop offset="100%" stop-color="#FFC655"/></linearGradient><filter id="b" width="111.5%" height="111.5%" x="-5.8%" y="-5.8%" filterUnits="objectBoundingBox"><feGaussianBlur in="SourceGraphic" stdDeviation=".635"/></filter></defs><g fill="none" fill-rule="evenodd"><path fill="url(#a)" d="M33 16.5C33 25.613 25.613 33 16.5 33S0 25.613 0 16.5 7.387 0 16.5 0 33 7.387 33 16.5z" filter="url(#b)" transform="translate(1 1)"/><path fill="#FFF" stroke="#FFF" stroke-width=".7" d="M21.48 27h-7.96A5.525 5.525 0 0 1 8 21.48v-7.96A5.525 5.525 0 0 1 13.52 8h7.96A5.525 5.525 0 0 1 27 13.52v7.96A5.525 5.525 0 0 1 21.48 27zM13.52 9.484a4.04 4.04 0 0 0-4.036 4.035v7.962a4.04 4.04 0 0 0 4.035 4.035h7.962a4.04 4.04 0 0 0 4.035-4.035v-7.962a4.04 4.04 0 0 0-4.035-4.035h-7.962zm3.98 13.137a5.127 5.127 0 0 1-5.121-5.121 5.127 5.127 0 0 1 5.121-5.121 5.127 5.127 0 0 1 5.121 5.121 5.127 5.127 0 0 1-5.121 5.121zm5.195-11.058a.742.742 0 1 1 0 1.484.742.742 0 0 1 0-1.485zm-5.195 2.3a3.64 3.64 0 0 0-3.637 3.637 3.64 3.64 0 0 0 3.637 3.637 3.64 3.64 0 0 0 3.637-3.637 3.64 3.64 0 0 0-3.637-3.637z"/></g></svg>