<svg xmlns="http://www.w3.org/2000/svg" width="34" height="33"><path fill="#017AB5" fill-rule="evenodd" d="M17 0c9.113 0 16.5 7.387 16.5 16.5S26.113 33 17 33 .5 25.613.5 16.5 7.887 0 17 0zm-5.28 21.12h2.64v-8.58h-2.64v8.58zm1.323-9.24c.877 0 1.317-.441 1.317-1.319 0-.878-.44-1.321-1.317-1.321-.379 0-.691.13-.944.387a1.26 1.26 0 0 0-.379.934c0 .878.438 1.319 1.323 1.319zm11.217 9.24v-4.934c0-1.178-.294-2.081-.888-2.71-.594-.622-1.366-.936-2.32-.936-1.258 0-2.172.449-2.8 1.335l-.176-1.122H15.68c.034.503.05 1.398.05 2.68v5.687h2.807v-4.825c0-.322.043-.541.11-.644.233-.683.712-1.021 1.432-1.021.914 0 1.373.605 1.373 1.824v4.666h2.808z"/></svg>