<?xml version="1.0" encoding="UTF-8"?>
<svg width="19px" height="27px" viewBox="0 0 19 27" version="1.1" xmlns="http://www.w3.org/2000/svg" xmlns:xlink="http://www.w3.org/1999/xlink">
    <!-- Generator: Sketch 46.2 (44496) - http://www.bohemiancoding.com/sketch -->
    <title>Combined Shape</title>
    <desc>Created with Sketch.</desc>
    <defs></defs>
    <g id="Symbols" stroke="none" stroke-width="1" fill="none" fill-rule="evenodd">
        <g id="icon/pink/place" transform="translate(-5.000000, -2.000000)" fill="#E5004D">
            <path d="M14.4999241,2 C9.26158761,2 5,6.43896875 5,11.8953418 C5,14.4018594 6.51623132,17.9432891 9.50682533,22.4213867 C11.6926508,25.6948203 13.842531,28.227916 13.9331029,28.3342285 L14.4999241,29 L15.0668971,28.3342285 C15.1572665,28.227916 17.3071467,25.6948203 19.4931747,22.4213867 C22.4835662,17.9432891 24,14.4018594 24,11.8953418 C24,6.43896875 19.7382099,2 14.4999241,2 Z M18.2573669,21.5071836 C16.779916,23.7211836 15.2866187,25.6266348 14.4999241,26.5987402 C13.7152039,25.6293242 12.227425,23.7310977 10.7509359,21.5199453 C7.98006358,17.3708574 6.51547191,14.0425801 6.51547191,11.8953418 C6.51547191,7.30950781 10.0973399,3.57855078 14.4999241,3.57855078 C18.9026601,3.57855078 22.4843256,7.30950781 22.4843256,11.8953418 C22.4843256,14.0403125 21.0226703,17.3640547 18.2573669,21.5071836 Z M14.4999241,5.65723437 C11.4082783,5.65723437 8.89312351,8.27702539 8.89312351,11.4973555 C8.89312351,14.7176328 11.4082783,17.3376875 14.4999241,17.3376875 C17.5917217,17.3376875 20.1068765,14.7176328 20.1068765,11.4973555 C20.1068765,8.27702539 17.5917217,5.65723437 14.4999241,5.65723437 Z M14.4999241,15.7591367 C12.2440307,15.7591367 10.4085954,13.8473047 10.4085954,11.4973555 C10.4085954,9.14756445 12.2440307,7.23573242 14.4999241,7.23573242 C16.7559693,7.23573242 18.5914046,9.14756445 18.5914046,11.4973555 C18.5914046,13.8473047 16.7559693,15.7591367 14.4999241,15.7591367 Z" id="Combined-Shape"></path>
        </g>
    </g>
</svg>