<svg xmlns="http://www.w3.org/2000/svg" width="47" height="47"><g fill="none" fill-rule="evenodd" transform="translate(1 1)"><circle cx="22.5" cy="22.5" r="22.5" fill="#FFF" stroke="#EA094B" stroke-width=".833"/><path fill="#E5004D" d="M22.083 11.667c-4.365 0-7.916 3.699-7.916 8.246 0 2.089 1.263 5.04 3.755 8.771a58.55 58.55 0 0 0 3.689 4.928l.472.555.473-.555c.075-.089 1.867-2.2 3.688-4.928C28.736 24.953 30 22.002 30 19.913c0-4.547-3.551-8.246-7.917-8.246zm3.554 16.594A59.52 59.52 0 0 1 22.5 32.5a59.464 59.464 0 0 1-3.13-4.229c-2.314-3.454-3.537-6.225-3.537-8.013 0-3.818 2.991-6.925 6.667-6.925 3.676 0 6.667 3.107 6.667 6.925 0 1.786-1.22 4.553-3.53 8.003zM22.083 15c-2.527 0-4.583 2.243-4.583 5s2.056 5 4.583 5c2.528 0 4.584-2.243 4.584-5s-2.056-5-4.584-5zm-.416 8.333c-1.838 0-3.334-1.682-3.334-3.75 0-2.067 1.496-3.75 3.334-3.75S25 17.516 25 19.583c0 2.068-1.495 3.75-3.333 3.75z"/></g></svg>