<svg xmlns="http://www.w3.org/2000/svg" width="260" height="40"><g fill="none" fill-rule="nonzero"><path fill="#181716" d="M159.807 39.666h.854V33.29h-.854v6.376zm-.027-7.836h.894v-1.075h-.894v1.075zM162.977 33.29h.841v.951c0 .278-.023.506-.023.506h.023a2.593 2.593 0 0 1 2.293-1.61c1.17 0 1.772.545 1.961 1.589h.026a2.571 2.571 0 0 1 2.327-1.59c1.535 0 2.103.901 2.103 2.475v4.055h-.86v-3.84c0-1.042-.213-1.903-1.372-1.903-.967 0-1.761.861-2 1.802-.085.3-.123.612-.114.924v3.017h-.851v-3.84c0-.965-.14-1.903-1.336-1.903-1.03 0-1.811.9-2.074 1.876a3.736 3.736 0 0 0-.09.85v3.017h-.854V33.29zM174.52 33.29h.845v.951c0 .17-.01.338-.027.506h.027a2.59 2.59 0 0 1 2.29-1.61c1.17 0 1.774.545 1.963 1.589h.024a2.576 2.576 0 0 1 2.33-1.59c1.532 0 2.102.901 2.102 2.475v4.055h-.857v-3.84c0-1.042-.213-1.903-1.37-1.903-.97 0-1.76.861-2 1.802-.085.3-.124.612-.113.924v3.017h-.857v-3.84c0-.965-.137-1.903-1.333-1.903-1.033 0-1.811.9-2.077 1.876-.061.279-.09.564-.087.85v3.017h-.857l-.002-6.376zM188.87 33.136a3.318 3.318 0 0 1 3.047 2.092 3.361 3.361 0 0 1-.753 3.638 3.3 3.3 0 0 1-3.624.69 3.344 3.344 0 0 1-2.017-3.111 3.313 3.313 0 0 1 .981-2.365 3.262 3.262 0 0 1 2.365-.944m0 5.91a2.489 2.489 0 0 0 1.776-.778c.464-.49.713-1.146.69-1.823a2.475 2.475 0 0 0-2.466-2.485 2.475 2.475 0 0 0-2.466 2.485 2.527 2.527 0 0 0 .69 1.823c.465.49 1.105.77 1.776.778M193.751 30.755h.857v3.091c0 .177-.008.354-.026.53h.026a2.29 2.29 0 0 1 2.15-1.232c1.699 0 2.756 1.37 2.756 3.349s-1.194 3.335-2.855 3.335a2.303 2.303 0 0 1-2.077-1.243h-.024s.024.215.024.53v.57h-.83v-8.93zm2.845 8.302c1.12 0 2.037-.951 2.037-2.572 0-1.56-.817-2.562-2-2.562-1.052 0-2.051.76-2.051 2.575 0 1.28.655 2.559 2.014 2.559zM201.162 30.755h.894v1.075h-.894v-1.075zm.026 2.535h.855v6.376h-.855V33.29zM204.065 30.755h.854v7.213c0 .837.378.964.704.964.072 0 .143-.004.213-.013v.774a2.252 2.252 0 0 1-.312.024c-.526 0-1.46-.165-1.46-1.558v-7.404zM207.23 30.755h.894v1.075h-.894v-1.075zm.023 2.535h.857v6.376h-.857V33.29zM213.105 33.136c1.749 0 2.63 1.357 2.63 2.943 0 .151-.027.443-.027.443h-4.842c.036 1.637 1.143 2.524 2.452 2.524a2.93 2.93 0 0 0 1.925-.773l.391.66c-.65.565-1.48.88-2.34.887a3.186 3.186 0 0 1-2.374-.942 3.237 3.237 0 0 1-.935-2.393c0-2.093 1.409-3.349 3.12-3.349zm1.775 2.676c-.053-1.325-.857-1.952-1.8-1.952-1.052 0-1.975.672-2.178 1.952h3.978zM217.377 33.29h.844v1.129c0 .169-.009.337-.026.506h.026c.303-.965 1.007-1.699 2-1.699.115.002.228.014.34.038v.85a2.046 2.046 0 0 0-.315-.027c-.892 0-1.56.71-1.84 1.648-.12.403-.18.822-.177 1.242v2.69h-.857l.005-6.377zM168.66 20.005a6.231 6.231 0 0 1-.125-1.364V.051h-5.203v19.38c0 6.074 3.591 6.823 6.483 6.823a12.49 12.49 0 0 0 1.44-.095c-1.808-1.83-2.405-4.408-2.594-6.154M153.424 26.225c4.937 0 8.586-3.9 8.586-9.912 0-5.868-3.244-9.916-8.329-9.916-4.422 0-6.046 3.12-6.046 3.12h-.074c.048-.431.073-.865.074-1.3V6.458h-4.272v26.329c4.698-.056 4.68-3.945 4.68-3.945v-3.578c0-.967-.074-1.635-.074-1.635h.073s1.66 2.596 5.382 2.596m-5.482-9.976c0-4.238 2.309-6.04 4.767-6.04 2.792 0 4.732 2.363 4.732 6.003 0 3.79-2.161 5.928-4.767 5.928-3.128 0-4.732-2.914-4.732-5.891M212.582 6.413c-4.364 0-6.835 1.73-7.405 5.264h4.758c.263-.9 1.18-1.325 2.863-1.325 1.966 0 2.968.543 3.076 1.624 0 1.047-1.036 1.658-3.076 1.91-4.795.469-8.087 1.695-8.195 6.273 0 3.947 2.763 6.066 6.849 6.013h9.114V11.677c-.108-3.534-2.755-5.264-7.979-5.264m-3.296 13.592c0-1.406.965-2.307 2.863-2.667a20.474 20.474 0 0 0 3.79-1.155v1.767c0 2.712-1.608 4.302-4.256 4.302-1.503 0-2.29-.72-2.397-2.236"/><path fill="#181716" d="M203.27 21.928h-9.35l10.473-11.305V6.384h-18.318a5.735 5.735 0 0 1 2.366 2.948c.176.565.292.978.36 1.24l5.581-.018h3.823l-10.548 11.748v3.944h18.45a5.565 5.565 0 0 1-2.84-4.318M178.306 6.39c-4.387 0-6.869 1.74-7.445 5.297h4.785c.263-.906 1.186-1.343 2.876-1.343 1.98 0 2.986.546 3.094 1.632 0 1.06-1.051 1.666-3.094 1.92-4.819.472-8.129 1.704-8.236 6.305 0 3.974 2.778 6.093 6.885 6.056h9.156v-14.57c-.108-3.552-2.768-5.298-8.02-5.298m-3.308 13.664c0-1.415.97-2.32 2.876-2.683a20.445 20.445 0 0 0 3.812-1.158v1.775c0 2.718-1.62 4.312-4.28 4.312-1.509 0-2.3-.723-2.408-2.246"/><path fill="#E5004B" d="M1.785 21.213a8.211 8.211 0 0 0 5.52 2.257c1.594 0 3.19-.84 3.19-2.41-.014-3.558-9.888-2.832-9.888-9.14 0-3.52 3.116-5.51 6.951-5.51 4.206 0 6.189 2.144 6.189 2.144l-1.48 2.786S10.557 9.62 7.519 9.62c-1.596 0-3.155.688-3.155 2.384 0 3.48 9.874 2.715 9.874 9.067 0 3.216-2.734 5.627-6.948 5.627C2.582 26.687 0 23.854 0 23.854l1.785-2.64zM17.971 10.117h-2.505V7.13h2.629V1.544h3.56v5.587h4.634v2.986h-4.635v8.609c0 3.865 2.698 4.363 4.102 4.363.293.003.586-.022.875-.077v3.29c-.428.053-.86.079-1.29.077-2.47 0-7.362-.766-7.362-7.232l-.008-9.03zM47.158 6.864h3.38v1.645c0 .473-.026.946-.076 1.417h.076s1.633-3.52 6.457-3.52c5.163 0 8.43 4.132 8.43 10.14 0 6.159-3.68 10.14-8.696 10.14-4.206 0-5.888-3.179-5.888-3.179h-.074s.074.689.074 1.682v7.59h-3.68l-.003-25.915zm9 16.646c3.04 0 5.545-2.527 5.545-6.927 0-4.21-2.24-6.927-5.431-6.927-2.892 0-5.544 2.029-5.544 6.967 0 3.443 1.898 6.887 5.43 6.887zM66.993.048h3.68V9.12c0 .919-.073 1.607-.073 1.607h.073c.836-1.875 3.268-4.323 7.098-4.323 4.52 0 6.607 2.488 6.607 7.418v12.402h-3.67V14.67c0-2.718-.576-4.869-3.652-4.869-2.892 0-5.279 1.99-6.075 4.784a9.096 9.096 0 0 0-.305 2.565v9.075h-3.68L66.992.048zM97.362 14.135h.833v-.344c0-3.18-1.785-4.239-4.206-4.239-2.963 0-5.355 1.876-5.355 1.876l-1.52-2.718a12.002 12.002 0 0 1 7.177-2.294c4.864 0 7.598 2.678 7.598 7.576v12.233h-3.418V24.39c-.001-.51.024-1.022.074-1.53h-.074a6.646 6.646 0 0 1-6.154 3.827c-3.302 0-6.53-2.029-6.53-5.894 0-6.39 8.355-6.657 11.583-6.657m-4.262 9.566c3.113 0 5.127-3.29 5.127-6.162v-.612h-.95c-2.773 0-7.786.19-7.786 3.674 0 1.569 1.217 3.1 3.61 3.1M103.971 6.864h3.57v2.564c0 .472-.026.945-.076 1.414h.076c.76-1.682 3.04-4.437 7.217-4.437 4.519 0 6.606 2.488 6.606 7.418v12.402h-3.68V14.67c0-2.718-.571-4.86-3.647-4.86-2.926-.009-5.279 1.952-6.078 4.76a9.197 9.197 0 0 0-.305 2.6v9.055h-3.68l-.003-19.361zM132.663 6.405c5.431 0 8.318 4.056 8.318 9.068 0 .498-.116 1.608-.116 1.608h-14.012c.19 4.238 3.19 6.39 6.607 6.39 3.304 0 5.697-2.258 5.697-2.258l1.519 2.718a11.384 11.384 0 0 1-7.442 2.755c-6.047 0-10.18-4.403-10.18-10.14 0-6.162 4.14-10.14 9.61-10.14zm4.567 7.881c-.114-3.327-2.164-4.935-4.633-4.935-2.82 0-5.094 1.759-5.62 4.935h10.253zM37.097 6.405c5.431 0 8.318 4.056 8.318 9.068 0 .498-.113 1.608-.113 1.608H31.284c.192 4.238 3.192 6.39 6.61 6.39 3.304 0 5.696-2.258 5.696-2.258l1.52 2.718a11.395 11.395 0 0 1-7.445 2.755c-6.047 0-10.177-4.403-10.177-10.14 0-6.162 4.138-10.14 9.606-10.14h.003zm4.556 7.881c-.116-3.327-2.164-4.935-4.63-4.935-2.81 0-5.09 1.759-5.62 4.935h10.25zM32.338 1.544h8.231v2.037h-8.231zM228.07 3.457h16.135c7.648 0 12.217 3.79 12.217 10.14v.096c0 6.53-4.732 10.429-12.695 10.429h-5.313l-5.258 5.37-1.593 1.684V19.28l7.732-6.299 8.544 5.563a1.704 1.704 0 0 0 1.705.184 1.734 1.734 0 0 0 .316-2.976l-10.542-7.046-11.191 8.794v22.318l7.48-7.907 4.24-4.334h3.88c4.614 0 8.552-1.197 11.394-3.465 3.097-2.471 4.732-6.074 4.732-10.418v-.096c0-4.17-1.525-7.65-4.406-10.066C252.694 1.221 248.807 0 244.205 0H228.07v3.457z"/><path fill="#C81344" d="M228.07 17.483l11.19-8.778 10.542 7.046a1.693 1.693 0 0 1 .284 2.527c-.397.34-1.093 1.06-2.308.265l-8.546-5.563-7.732 6.286-3.43-1.783z"/></g></svg>