<?xml version="1.0" encoding="UTF-8"?>
<svg width="25px" height="25px" viewBox="0 0 25 25" version="1.1" xmlns="http://www.w3.org/2000/svg" xmlns:xlink="http://www.w3.org/1999/xlink">
    <!-- Generator: Sketch 46.2 (44496) - http://www.bohemiancoding.com/sketch -->
    <title>marker_bien</title>
    <desc>Created with Sketch.</desc>
    <defs></defs>
    <g id="Symbols" stroke="none" stroke-width="1" fill="none" fill-rule="evenodd">
        <g id="marker_bien">
            <g transform="translate(7.000000, 0.000000)">
                <rect id="Rectangle-3" fill="#FFFFFF" x="0" y="2.17283951" width="10.6" height="6.91358025"></rect>
                <path d="M0,6.96387897 L0,9.0787648e-06 L6.65631227,9.0787648e-06 C8.49960438,-0.00244625026 10.0540491,0.493192929 11.15038,1.4061759 C12.2993808,2.36290512 12.9088021,3.74605625 12.9077542,5.39414058 C12.9214444,7.14657463 12.2656083,8.5793404 11.0296173,9.55964801 C9.89543223,10.454997 8.32153687,10.93773 6.48162171,10.9372896 L4.78796257,10.9752177 L0,15.8421111 L0,10.9294526 L0,8.79604901 L4.56534834,5.17049316 L8.03290083,7.38898633 C8.52389376,7.70498315 8.80679869,7.41910746 8.96795004,7.28443022 C9.10090878,7.14164667 9.16464023,6.94893301 9.14265034,6.75616455 C9.12066045,6.56339609 9.01511051,6.38951919 8.85331741,6.27953412 L4.57671039,3.46676945 L0,6.96387897 Z" id="Shape" fill="#E5014C" fill-rule="nonzero"></path>
            </g>
        </g>
    </g>
</svg>