<?xml version="1.0" encoding="UTF-8"?>
<svg width="25px" height="25px" viewBox="0 0 25 25" version="1.1" xmlns="http://www.w3.org/2000/svg" xmlns:xlink="http://www.w3.org/1999/xlink">
    <!-- Generator: Sketch 46.2 (44496) - http://www.bohemiancoding.com/sketch -->
    <title>marker_bien_approx</title>
    <desc>Created with Sketch.</desc>
    <defs></defs>
    <g id="Symbols" stroke="none" stroke-width="1" fill="none" fill-rule="evenodd">
        <g id="marker_bien_approx">
            <g transform="translate(3.000000, 0.000000)">
                <path d="M9.24974193,22.9328555 L6.05364098,22.9328555 L6.05364098,18.8771313 L12.265541,20.3112614 L9.24974193,22.9328555 Z M11.519064,22.9328555 L14.0586445,20.725232 L14.078684,20.7298585 L14.0850518,20.7022764 L18.1647456,17.1558527 L20,22.9328555 L11.519064,22.9328555 Z M17.6736697,15.6100469 L13.65441,19.103936 L1.6919015,16.3421733 L2.29316347,14 L17.1621855,14 L17.6736697,15.6100469 Z M4.56483172,22.9328555 L0,22.9328555 L1.32160072,17.7846537 L4.56483172,18.5334126 L4.56483172,22.9328555 Z" id="Combined-Shape-Copy" fill="#3DA7A2"></path>
                <path d="M4,9.11300583e-06 L10.7235477,9.11300583e-06 C12.585459,-0.00245547642 14.1556051,0.495053032 15.2630101,1.41147937 C16.423617,2.37181694 17.0391941,3.76018469 17.0381356,5.41448486 C17.0519641,7.1735283 16.3895033,8.61169783 15.1410275,9.59570271 C13.9953861,10.4944286 12.4055928,10.9789823 10.5470926,10.9785402 L8.83632583,11.0166113 L4,15.9018604 L4,9.11300583e-06 Z" id="Shape-Copy" fill="#E5014C" fill-rule="nonzero"></path>
            </g>
        </g>
    </g>
</svg>