<svg xmlns="http://www.w3.org/2000/svg" width="56" height="56"><g fill="none" fill-rule="evenodd" transform="translate(1 1)"><circle cx="27" cy="27.4" r="27" fill="#FFF" stroke="#E5004D"/><path fill="#E5004D" stroke="#FFF" stroke-width=".63" d="M38.152 18.4H14.848a.844.844 0 0 0-.848.84v16.32c0 .464.38.84.848.84h23.304a.844.844 0 0 0 .848-.84V19.24c0-.464-.38-.84-.848-.84zM15.696 34.72V20.08h21.608v14.64H15.696zm2.22-10.686L26.057 29a.853.853 0 0 0 .889 0l8.138-4.966a.835.835 0 0 0 .277-1.155.853.853 0 0 0-1.166-.274L26.5 27.299l-7.694-4.694a.852.852 0 0 0-1.166.274.835.835 0 0 0 .277 1.155z"/></g></svg>