<?xml version="1.0" encoding="UTF-8"?>
<svg width="27px" height="20px" viewBox="0 0 27 20" version="1.1" xmlns="http://www.w3.org/2000/svg" xmlns:xlink="http://www.w3.org/1999/xlink">
    <!-- Generator: Sketch 51.2 (57519) - http://www.bohemiancoding.com/sketch -->
    <title>Combined Shape</title>
    <desc>Created with Sketch.</desc>
    <defs></defs>
    <g id="Symbols" stroke="none" stroke-width="1" fill="none" fill-rule="evenodd">
        <g id="icon/pink/email" transform="translate(-1.000000, -5.000000)" fill="#E5004D" stroke="#FFFFFF" stroke-width="0.629999989">
            <path d="M26.1522493,6 L2.84775075,6 C2.37953801,6 2,6.37580111 2,6.8395914 L2,23.1604086 C2,23.6241989 2.37953801,24 2.84775075,24 L26.1522493,24 C26.6205468,24 27,23.6241989 27,23.1604086 L27,6.8395914 C27,6.37580111 26.6205468,6 26.1522493,6 Z M3.6955015,22.3208172 L3.6955015,7.6791828 L25.3044985,7.6791828 L25.3044985,22.3208172 L3.6955015,22.3208172 Z M5.91686278,11.6340781 L14.05527,16.6001772 C14.1916731,16.6834647 14.3457094,16.7251084 14.5,16.7251084 C14.6543754,16.7251084 14.8083269,16.6834647 14.94473,16.6001772 L23.0831372,11.6340781 C23.4818344,11.3907645 23.6056908,10.8734922 23.3603517,10.4789682 C23.1145888,10.0841084 22.5923743,9.96110826 22.1936771,10.2045058 L14.5,14.899333 L6.80632286,10.2045058 C6.40796479,9.9614441 5.88575033,10.0841084 5.64007216,10.4789682 C5.39430922,10.8734922 5.5181656,11.3907645 5.91686278,11.6340781 Z" id="Combined-Shape"></path>
        </g>
    </g>
</svg>