<svg xmlns="http://www.w3.org/2000/svg" width="19" height="27"><path fill="#E5004D" fill-rule="evenodd" stroke="#E5004D" stroke-width=".5" d="M17.225 4.85H1.781v-.314c-.053-.75.191-1.49.677-2.053a2.566 2.566 0 0 1 1.931-.68h10.182c.796 0 2.654.266 2.654 2.733v.314zm-2.654 20.352H4.435c-.795 0-2.654-.266-2.654-2.733v-2.127h15.44v2.127c.004.819-.259 2.733-2.65 2.733zm-12.79-5.648h15.44V5.642H1.78v13.912zm12.79-18.549C16.23 1.005 18 1.93 18 4.531v17.938C18 24.176 17.096 26 14.571 26H4.435c-1.657 0-3.428-.93-3.428-3.531V4.536a3.601 3.601 0 0 1 .903-2.622 3.269 3.269 0 0 1 2.443-.909H14.57zm-3.846 1.946H8.298a.393.393 0 0 0-.388.4c0 .22.174.398.388.398h2.427a.393.393 0 0 0 .387-.399.393.393 0 0 0-.387-.399zM9.5 21.097c-.938.003-1.697.788-1.694 1.755.003.966.766 1.747 1.704 1.744.934-.003 1.691-.782 1.694-1.744 0-.97-.763-1.755-1.704-1.755zm0 2.707c-.51-.003-.922-.432-.92-.958.004-.525.42-.95.93-.946.509.003.92.428.92.952-.004.525-.42.95-.93.946v.006z"/></svg>