<svg xmlns="http://www.w3.org/2000/svg" width="31" height="25"><path fill="#E5004D" fill-rule="evenodd" stroke="#E5004D" stroke-width=".7" d="M20.465 23.17h4.599v-1.387h-4.599v1.387zm0-2.217h4.599v-7.595h-4.599v7.595zm-16.8-9.688c.402.135.831.209 1.279.209 1.534 0 2.867-.86 3.518-2.114a3.959 3.959 0 0 0 3.52 2.114c1.534 0 2.867-.86 3.518-2.114a3.959 3.959 0 0 0 3.519 2.114c1.534 0 2.867-.86 3.519-2.114a3.959 3.959 0 0 0 3.518 2.114c.448 0 .877-.074 1.278-.209V23.17h-1.42V12.943a.42.42 0 0 0-.425-.414H20.04a.42.42 0 0 0-.424.414V23.17H3.666V11.265zm11.38-3.228c-.207 1.47-1.502 2.607-3.064 2.607S9.125 9.508 8.917 8.037h6.128zm7.038 0c-.208 1.47-1.502 2.607-3.064 2.607s-2.857-1.136-3.064-2.607h6.128zm-20.204 0H3.24a.42.42 0 0 0 .425-.414.42.42 0 0 0-.425-.415H2.157l3.008-5.14a.487.487 0 0 1 .42-.238h19.83c.174 0 .335.09.42.238l3.008 5.14H27.76a.42.42 0 0 0-.425.415c0 .229.19.414.425.414h1.362c-.208 1.47-1.503 2.607-3.065 2.607S23.2 9.508 22.992 8.037h2.951a.42.42 0 0 0 .425-.414.42.42 0 0 0-.425-.415H5.057a.42.42 0 0 0-.425.415c0 .229.19.414.425.414h2.95c-.207 1.47-1.502 2.607-3.063 2.607-1.562 0-2.857-1.136-3.065-2.607zM28.667 23.17a.42.42 0 0 1 .425.415.42.42 0 0 1-.425.415H2.333a.42.42 0 0 1-.425-.415c0-.229.19-.415.425-.415h.483V10.863C1.725 10.177 1 8.98 1 7.623c0-.073.02-.144.056-.206l3.37-5.761C4.665 1.25 5.108 1 5.585 1h19.832c.477 0 .92.251 1.157.656l3.371 5.76a.408.408 0 0 1 .056.207c0 1.358-.725 2.554-1.816 3.24V23.17h.483zM17.77 12.53H5.511a.42.42 0 0 0-.425.414v8.425c0 .23.19.415.425.415h12.26a.42.42 0 0 0 .424-.415v-8.425a.42.42 0 0 0-.425-.414zM5.936 20.953v-7.595h11.41v7.595H5.935z"/></svg>