<?xml version="1.0" encoding="UTF-8"?>
<svg width="41px" height="41px" viewBox="0 0 41 41" version="1.1" xmlns="http://www.w3.org/2000/svg" xmlns:xlink="http://www.w3.org/1999/xlink">
    <!-- Generator: Sketch 46.2 (44496) - http://www.bohemiancoding.com/sketch -->
    <title>percentage</title>
    <desc>Created with Sketch.</desc>
    <defs></defs>
    <g id="Page-1" stroke="none" stroke-width="1" fill="none" fill-rule="evenodd">
        <g id="percentage" transform="translate(3.000000, 3.000000)">
            <circle id="Oval" stroke="#EA094B" stroke-width="5" cx="17.5" cy="17.5" r="17.5"></circle>
            <path d="M12.2578002,18.0616004 C11.299262,18.0616004 10.5166698,17.7461368 9.9100001,17.1152003 C9.3033303,16.4842638 9,15.6228057 9,14.5308002 C9,13.8149299 9.139532,13.1900694 9.4186,12.6562001 C9.6976681,12.1223307 10.0828976,11.7128348 10.5743001,11.4277 C11.0657026,11.1425652 11.6268637,11 12.2578002,11 C13.2284718,11 14.0171306,11.3184968 14.6238003,11.9555 C15.2304701,12.5925033 15.5338004,13.4509281 15.5338004,14.5308002 C15.5338004,15.6228057 15.2304701,16.4842638 14.6238003,17.1152003 C14.0171306,17.7461368 13.2284718,18.0616004 12.2578002,18.0616004 Z M19.7926006,11.1638 L22.4134008,11.1638 L13.7138003,23.9038007 L11.0930001,23.9038007 L19.7926006,11.1638 Z M12.2578002,16.3326003 C12.5854019,16.3326003 12.8462659,16.1870017 13.0404002,15.8958003 C13.2345346,15.6045988 13.3316003,15.1496033 13.3316003,14.5308002 C13.3316003,13.9119971 13.2345346,13.4570016 13.0404002,13.1658001 C12.8462659,12.8745986 12.5854019,12.7290001 12.2578002,12.7290001 C11.9423319,12.7290001 11.6845012,12.8776319 11.4843002,13.1749001 C11.2840991,13.4721683 11.1840001,13.9241305 11.1840001,14.5308002 C11.1840001,15.1374699 11.2840991,15.5894321 11.4843002,15.8867003 C11.6845012,16.1839684 11.9423319,16.3326003 12.2578002,16.3326003 Z M21.2486007,24.0676007 C20.2779291,24.0676007 19.4923036,23.7521372 18.8917006,23.1212007 C18.2910975,22.4902641 17.9908005,21.628806 17.9908005,20.5368005 C17.9908005,19.4569284 18.2941308,18.5985036 18.9008006,17.9615004 C19.5074703,17.3244972 20.2900625,17.0060003 21.2486007,17.0060003 C22.2192723,17.0060003 23.0079311,17.3244972 23.6146008,17.9615004 C24.2212706,18.5985036 24.5246009,19.4569284 24.5246009,20.5368005 C24.5246009,21.628806 24.2212706,22.4902641 23.6146008,23.1212007 C23.0079311,23.7521372 22.2192723,24.0676007 21.2486007,24.0676007 Z M21.2486007,22.3386006 C21.5762024,22.3386006 21.8370664,22.1930021 22.0312007,21.9018006 C22.2253351,21.6105991 22.3224008,21.1556036 22.3224008,20.5368005 C22.3224008,19.9179974 22.2253351,19.4630019 22.0312007,19.1718004 C21.8370664,18.880599 21.5762024,18.7350004 21.2486007,18.7350004 C20.920999,18.7350004 20.660135,18.880599 20.4660007,19.1718004 C20.2718663,19.4630019 20.1748006,19.9179974 20.1748006,20.5368005 C20.1748006,21.1556036 20.2718663,21.6105991 20.4660007,21.9018006 C20.660135,22.1930021 20.920999,22.3386006 21.2486007,22.3386006 Z" id="%" fill="#000000" fill-rule="nonzero"></path>
        </g>
    </g>
</svg>