<svg xmlns="http://www.w3.org/2000/svg" width="23" height="23"><path fill="#E5004D" fill-rule="evenodd" d="M18.187 14.248c-.472-.49-1.04-.753-1.643-.753-.598 0-1.172.258-1.663.748l-1.536 1.53c-.126-.069-.253-.132-.374-.195-.175-.087-.34-.17-.482-.257-1.439-.913-2.746-2.102-4-3.641-.608-.767-1.016-1.413-1.313-2.068.399-.364.768-.743 1.128-1.107.136-.136.272-.277.408-.413 1.021-1.019 1.021-2.34 0-3.359L7.385 3.408c-.15-.15-.306-.306-.452-.461a23.021 23.021 0 0 0-.914-.903c-.472-.466-1.036-.714-1.629-.714s-1.166.248-1.652.714l-.01.01-1.653 1.665A3.55 3.55 0 0 0 .02 5.976c-.117 1.417.301 2.738.622 3.602.788 2.121 1.964 4.087 3.72 6.194 2.129 2.539 4.69 4.544 7.617 5.956 1.118.53 2.61 1.156 4.278 1.262.102.005.209.01.306.01 1.123 0 2.066-.403 2.805-1.204.005-.01.015-.014.02-.024.253-.306.544-.583.85-.879.21-.199.423-.407.632-.626.482-.5.734-1.082.734-1.68 0-.601-.257-1.18-.748-1.665l-2.669-2.674zm1.74 5.111c-.005 0-.005.005 0 0-.19.204-.384.389-.593.593-.316.3-.637.616-.938.97-.491.525-1.07.772-1.828.772-.073 0-.15 0-.223-.004-1.444-.093-2.786-.656-3.792-1.136a21.593 21.593 0 0 1-7.176-5.612c-1.657-1.995-2.766-3.84-3.5-5.82-.452-1.209-.617-2.151-.544-3.04a2.226 2.226 0 0 1 .67-1.44l1.658-1.656c.238-.224.491-.345.74-.345.305 0 .553.185.709.34l.014.014c.297.277.579.564.876.87.15.155.306.31.461.47l1.327 1.326c.516.514.516.99 0 1.504-.14.141-.277.282-.418.418-.408.417-.797.806-1.22 1.184-.01.01-.02.015-.024.024-.418.418-.34.826-.253 1.102l.015.044c.345.835.831 1.621 1.57 2.558l.005.005c1.342 1.65 2.756 2.937 4.317 3.923.199.126.403.228.598.325.175.087.34.17.48.257.02.01.04.024.06.034.165.082.32.121.48.121.404 0 .657-.252.74-.335l1.662-1.66c.165-.165.428-.364.734-.364.302 0 .55.19.7.355l2.688 2.684c.501.495.501 1.005.005 1.52zM12.431 5.471a.648.648 0 0 1-.53-.757.66.66 0 0 1 .759-.534 7.502 7.502 0 0 1 4.059 2.102 7.484 7.484 0 0 1 2.105 4.053.656.656 0 0 1-.54.757c-.039.005-.073.01-.111.01a.652.652 0 0 1-.647-.544 6.185 6.185 0 0 0-1.74-3.349 6.169 6.169 0 0 0-3.355-1.738zm10.559 4.675a.643.643 0 0 1-.535.747c-.039.005-.073.01-.112.01a.652.652 0 0 1-.646-.543A10.992 10.992 0 0 0 18.6 4.394 11.05 11.05 0 0 0 12.626 1.3.654.654 0 1 1 12.84.01a12.342 12.342 0 0 1 6.684 3.461 12.312 12.312 0 0 1 3.466 6.675z"/></svg>