<svg xmlns="http://www.w3.org/2000/svg" width="47" height="47"><g fill="none" fill-rule="evenodd" transform="translate(1 1)"><circle cx="22.5" cy="22.5" r="22.5" fill="#FFF" stroke="#EA094B" stroke-width=".833"/><path fill="#E5004D" d="M27.656 24.373c-.393-.408-.867-.627-1.37-.627-.498 0-.976.215-1.385.623l-1.28 1.274c-.106-.056-.21-.109-.312-.161-.146-.073-.284-.142-.401-.215-1.2-.76-2.29-1.752-3.334-3.034-.507-.639-.847-1.177-1.094-1.723.332-.303.64-.62.94-.922l.34-.344c.85-.85.85-1.95 0-2.8l-1.106-1.104c-.125-.125-.255-.255-.377-.384-.243-.251-.498-.51-.761-.753-.393-.388-.863-.594-1.357-.594-.495 0-.973.206-1.378.594l-.008.008-1.377 1.388a2.958 2.958 0 0 0-.88 1.881c-.096 1.181.252 2.282.52 3.002.655 1.767 1.636 3.406 3.098 5.161a19.06 19.06 0 0 0 6.348 4.964c.932.44 2.176.963 3.565 1.052.086.004.175.008.256.008.936 0 1.722-.336 2.337-1.004.004-.008.012-.012.017-.02.21-.254.453-.485.708-.732.175-.166.353-.34.527-.522.401-.416.612-.902.612-1.4 0-.5-.215-.982-.624-1.387l-2.224-2.229zm1.45 4.26c-.004 0-.004.004 0 0-.158.17-.32.323-.494.493-.263.251-.53.514-.782.81-.41.436-.891.643-1.523.643-.061 0-.126 0-.187-.004-1.203-.077-2.32-.547-3.16-.947a17.994 17.994 0 0 1-5.979-4.676c-1.381-1.663-2.305-3.2-2.917-4.85-.377-1.008-.514-1.793-.453-2.533.04-.473.222-.866.559-1.201l1.381-1.38c.198-.186.41-.287.616-.287.255 0 .461.154.591.283l.012.012c.248.23.482.47.73.724.125.13.255.26.384.393l1.106 1.104c.43.429.43.825 0 1.254-.117.118-.23.235-.348.348-.34.348-.664.672-1.017.987-.008.008-.016.012-.02.02-.348.348-.284.688-.21.918l.012.037c.287.696.692 1.351 1.308 2.132l.004.004c1.118 1.375 2.297 2.447 3.597 3.268.166.106.337.19.499.271.146.073.283.142.4.215.017.008.033.02.05.028a.88.88 0 0 0 .4.101c.337 0 .547-.21.616-.279l1.386-1.383c.137-.138.356-.304.611-.304.252 0 .458.158.584.296l2.24 2.237c.417.412.417.837.004 1.266zM22.86 17.059a.54.54 0 0 1-.441-.63.55.55 0 0 1 .632-.446 6.251 6.251 0 0 1 3.382 1.752 6.237 6.237 0 0 1 1.755 3.378c.048.3-.15.582-.45.63a.543.543 0 0 1-.632-.445 5.154 5.154 0 0 0-1.45-2.79 5.14 5.14 0 0 0-2.796-1.449zm8.8 3.896a.536.536 0 0 1-.446.623c-.033.004-.061.008-.094.008a.543.543 0 0 1-.538-.453A9.16 9.16 0 0 0 28 16.161a9.209 9.209 0 0 0-4.98-2.577.545.545 0 1 1 .178-1.076c2.115.36 4.04 1.356 5.57 2.885a10.26 10.26 0 0 1 2.89 5.562z"/></g></svg>