<svg xmlns="http://www.w3.org/2000/svg" width="25" height="31"><g fill="none" fill-rule="nonzero"><path fill="#E5004B" d="M.1 2.64h12.372c5.864 0 9.367 2.894 9.367 7.743v.073c0 4.986-3.628 7.964-9.734 7.964H8.032L4 22.52 2.78 23.806v-9.084l5.928-4.81 6.55 4.248c.38.277.879.331 1.308.14a1.322 1.322 0 0 0 .243-2.273l-8.083-5.38-8.58 6.716v17.042l5.734-6.038 3.251-3.31h2.975c3.538 0 6.557-.914 8.736-2.646 2.375-1.887 3.629-4.638 3.629-7.955v-.073c0-3.184-1.17-5.842-3.379-7.687C18.981.933 16 0 12.472 0H.1v2.64z"/><path fill="#C81344" d="M.1 13.35l8.58-6.703 8.084 5.38a1.287 1.287 0 0 1 .217 1.93c-.304.26-.838.81-1.77.203L8.66 9.912l-5.929 4.8L.1 13.35z"/></g></svg>