<?xml version="1.0" encoding="UTF-8"?>
<svg width="25px" height="22px" viewBox="0 0 25 22" version="1.1" xmlns="http://www.w3.org/2000/svg" xmlns:xlink="http://www.w3.org/1999/xlink">
    <!-- Generator: Sketch 49 (51002) - http://www.bohemiancoding.com/sketch -->
    <title>Fill 1</title>
    <desc>Created with Sketch.</desc>
    <defs></defs>
    <g id="Symbols" stroke="none" stroke-width="1" fill="none" fill-rule="evenodd">
        <g id="icon/pink/heart" transform="translate(-3.000000, -4.000000)" fill="#E5004D">
            <path d="M15.5,26 C15.1440447,26 14.8009678,25.8724363 14.533452,25.6408535 C13.5235082,24.7674074 12.5498191,23.9464839 11.6908145,23.2225161 L11.686481,23.2187128 C9.1678776,21.0955891 6.99277836,19.2623061 5.47954112,17.4561296 C3.78796002,15.4372664 3,13.5228449 3,11.4315367 C3,9.39969375 3.70428123,7.52511704 4.98314461,6.15306766 C6.27726671,4.76477852 8.05301488,4 9.98397469,4 C11.4270829,4 12.7486707,4.4513932 13.911873,5.34138096 C14.4988452,5.79041969 15.0310081,6.34033819 15.5,6.98153748 C15.9689308,6.34033819 16.5008496,5.79041969 17.088066,5.34138096 C18.2515735,4.4513932 19.5731002,4 21.0162695,4 C22.946741,4 24.7226723,4.76477852 26.0167944,6.15306766 C27.2956577,7.52511704 28,9.39969375 28,11.4315367 C28,13.5228449 27.2122231,15.4372664 25.5204589,17.4561296 C24.0072216,19.2623061 21.8326107,21.0953476 19.3141904,23.2182298 C18.4537209,23.943405 17.4783839,24.765717 16.4663039,25.641095 C16.1990322,25.8724363 15.8557112,26 15.5,26 Z" id="Fill-1"></path>
        </g>
    </g>
</svg>