<svg xmlns="http://www.w3.org/2000/svg" width="30" height="30"><path fill="#E5004D" fill-rule="evenodd" stroke="#E5004D" stroke-width=".6" d="M26.651 8.394l-4.808-5.028 1.102-1.208 4.926 5.01-1.22 1.226zm-2.023 2.864c.148.453.029.952-.308 1.285l-2.467 2.724c-.214.22-.487.369-.784.43v-.67a2.368 2.368 0 0 0-1.867-2.325v-1.625a1.709 1.709 0 0 0-1.489-1.738 1.636 1.636 0 0 0-.852.157 1.697 1.697 0 0 0-1.481-1.581c-.02-.002-.04.002-.06 0l1.875-2.223a1.884 1.884 0 0 1 1.799-.506l1.344.341a.46.46 0 0 0 .443-.125l.866-.88 4.02 4.205c-.43.508-1.315 1.689-1.039 2.53zM20.135 22.21a1.977 1.977 0 0 1-.79 1.569l-.926.865a.478.478 0 0 0-.15.349v.685H12.2v-.099a2.191 2.191 0 0 0-1.14-1.933 1.357 1.357 0 0 1-.727-1.181v-4.59a1.42 1.42 0 0 1 .934-1.337v2.97h.933v-8.922a.753.753 0 0 1 .626-.776.696.696 0 0 1 .544.18.71.71 0 0 1 .23.529v7.091h.934V9.57a.706.706 0 0 1 .764-.71c.377.064.65.404.636.793v7.957h.933v-6.617a.706.706 0 0 1 .764-.709c.378.064.65.404.636.793v6.533h.934v-3.92c.558.2.931.736.933 1.337v7.183zm-8.867 5.84h7.934v-1.423h-7.934v1.424zM9.442 17.437l-3.33-3.483a1.959 1.959 0 0 1-.498-1.83l.336-1.365a.479.479 0 0 0-.123-.45L4.534 8.992l3.933-4 .604.614a.461.461 0 0 0 .622.034l.384-.314c.53-.15 1.098.002 1.486.398l2.572 2.617-.004.003c-.208.194-.364.44-.45.714a1.618 1.618 0 0 0-.947-.193 1.704 1.704 0 0 0-1.466 1.72v4.963a2.36 2.36 0 0 0-1.826 1.887zM3.333 8.871L2.127 7.644l5.407-5.498 1.207 1.227-5.408 5.498zm25.53-2.037l-5.6-5.695a.462.462 0 0 0-.672.012L20.857 3.05a.48.48 0 0 0 .007.654l.132.137-.689.7-1.087-.276a2.818 2.818 0 0 0-2.709.782l-1.983 2.351-2.305-2.344a2.42 2.42 0 0 0-2.516-.604.471.471 0 0 0-.146.08l-.126.104-.308-.312.604-.613a.48.48 0 0 0 0-.671L7.864 1.138a.461.461 0 0 0-.66 0L1.137 7.31a.48.48 0 0 0 0 .67l1.867 1.899a.461.461 0 0 0 .66 0l.21-.214 1.106 1.124-.271 1.106c-.239.977.041 2.01.738 2.725l3.954 4.136v3.71c.008.85.478 1.627 1.22 2.019.399.215.647.637.647 1.095v.099H10.8a.47.47 0 0 0-.467.474v2.373A.47.47 0 0 0 10.8 29h8.868a.47.47 0 0 0 .467-.474v-2.373a.47.47 0 0 0-.466-.475h-.467v-.477l.74-.694a2.906 2.906 0 0 0 1.127-2.297v-5.559a2.442 2.442 0 0 0 1.457-.727l2.467-2.724c.58-.585.782-1.455.52-2.243-.074-.229.328-.977.807-1.552.085.086.2.136.32.137h.005c.123 0 .24-.049.328-.137l1.888-1.898a.48.48 0 0 0 .004-.671l-.002-.002z"/></svg>