<svg xmlns="http://www.w3.org/2000/svg" width="25" height="25"><path fill="#E5004D" fill-rule="evenodd" d="M24.03.162l-3.289 3.29-1.534-1.534a1.717 1.717 0 0 0-1.482-.479l-5.61.9a1.665 1.665 0 0 0-.936.48L.5 13.502a1.71 1.71 0 0 0 0 2.417l8.581 8.58a1.71 1.71 0 0 0 2.418 0L22.178 13.82a1.7 1.7 0 0 0 .479-.935l.9-5.61a1.717 1.717 0 0 0-.478-1.481L21.545 4.26l3.29-3.29a.57.57 0 0 0-.804-.809zm-1.755 6.436c.13.13.19.315.16.496l-.902 5.61a.55.55 0 0 1-.16.313L10.69 23.695a.579.579 0 0 1-.81 0l-8.575-8.58a.579.579 0 0 1 0-.81L11.989 3.629a.553.553 0 0 1 .314-.16l5.61-.9a.574.574 0 0 1 .496.16l1.534 1.533-2.709 2.696a.568.568 0 0 0 .405.97c.152 0 .297-.06.405-.166l2.697-2.696 1.534 1.533zm-9.687.559a.568.568 0 0 0-.804 0L4.4 14.539a.569.569 0 0 0 0 .804l5.251 5.25a.56.56 0 0 0 .405.166c.152 0 .297-.06.405-.165l7.384-7.383a.569.569 0 0 0 0-.804l-5.257-5.25zM10.056 19.39l-4.447-4.447 6.58-6.578 4.447 4.446-6.58 6.579z"/></svg>