<?xml version="1.0" encoding="UTF-8"?>
<svg width="22px" height="14px" viewBox="0 0 22 14" version="1.1" xmlns="http://www.w3.org/2000/svg" xmlns:xlink="http://www.w3.org/1999/xlink">
    <!-- Generator: Sketch 49 (51002) - http://www.bohemiancoding.com/sketch -->
    <title>Combined Shape</title>
    <desc>Created with Sketch.</desc>
    <defs></defs>
    <g id="Pages" stroke="none" stroke-width="1" fill="none" fill-rule="evenodd">
        <g id="02---Restitution-de-recherche-acheter" transform="translate(-1283.000000, -118.000000)" fill="#555555">
            <g id="Section-1---Search-form" transform="translate(0.000000, 78.000000)">
                <g id="inputs-form" transform="translate(40.000000, 21.000000)">
                    <g id="sort-by" transform="translate(1243.000000, 16.000000)">
                        <path d="M5.17874475,13.122444 L6.17617009,12.1340841 L7.44208547,13.367135 L3.74014835,17 L0,13.329469 L1.29462999,12.1340841 L2.37831155,13.1881251 L2.81953881,13.6418824 L2.81953881,3 L4.73757369,3 L4.73757369,13.5572304 L5.17874475,13.122444 Z M9.55280607,14.1948492 L9.55280607,12.3124874 L18.1841597,12.3124874 L18.1841597,14.1948492 L9.55280607,14.1948492 Z M9.55280607,6.19841017 L9.55280607,4.31604842 L18.1841597,4.31604842 L18.1841597,6.19841017 L9.55280607,6.19841017 Z M9.53263279,10.4118166 L9.53263279,8.52945486 L22,8.52945486 L22,10.4118166 L9.53263279,10.4118166 Z" id="Combined-Shape"></path>
                    </g>
                </g>
            </g>
        </g>
    </g>
</svg>