<svg xmlns="http://www.w3.org/2000/svg" width="75" height="74"><g fill="none" fill-rule="evenodd"><path fill="#EEE" d="M51 69H17v2a3 3 0 0 1-6 0v-2c0-.051.001-.102.004-.152C4.772 67.888 0 62.5 0 56V26c0-7.18 5.82-13 13-13h11.417a15.977 15.977 0 0 1 5.78-3.267l-5.465-5.465A2.5 2.5 0 0 1 28.268.732L35.5 7.964 42.732.732a2.5 2.5 0 0 1 3.536 3.536l-5.72 5.72c1.867.69 3.57 1.72 5.035 3.012H62c7.18 0 13 5.82 13 13v30c0 7.18-5.82 13-13 13h-5v2a3 3 0 0 1-6 0v-2z"/><path fill="#E5004D" d="M67 35a2 2 0 1 1 0-4 2 2 0 0 1 0 4zm0 7a2 2 0 1 1 0-4 2 2 0 0 1 0 4zm0 7a2 2 0 1 1 0-4 2 2 0 0 1 0 4z"/><rect width="53" height="44" x="7" y="19" fill="#E5004D" rx="10"/><path fill="#FFF" d="M28.784 32.6h-2.292l-2.46-4.284-.6-1.2h-.012l.048 1.488V32.6h-1.824v-7.92h2.292l2.46 4.284.6 1.2h.012l-.048-1.488V24.68h1.824v7.92zm5.304-8.04c.8 0 1.49.162 2.07.486.58.324 1.026.792 1.338 1.404.312.612.468 1.342.468 2.19 0 .848-.156 1.578-.468 2.19a3.266 3.266 0 0 1-1.338 1.404c-.58.324-1.27.486-2.07.486-.8 0-1.492-.162-2.076-.486a3.257 3.257 0 0 1-1.344-1.404c-.312-.612-.468-1.342-.468-2.19 0-.848.156-1.578.468-2.19.312-.612.76-1.08 1.344-1.404.584-.324 1.276-.486 2.076-.486zm0 1.62c-.576 0-1.016.208-1.32.624-.304.416-.456 1.028-.456 1.836s.152 1.42.456 1.836c.304.416.744.624 1.32.624.576 0 1.014-.208 1.314-.624.3-.416.45-1.028.45-1.836s-.15-1.42-.45-1.836c-.3-.416-.738-.624-1.314-.624zm8.388-1.62c.752 0 1.394.112 1.926.336.532.224 1.026.588 1.482 1.092l-1.164 1.344c-.264-.4-.574-.694-.93-.882-.356-.188-.782-.282-1.278-.282-.416 0-.736.072-.96.216-.224.144-.336.336-.336.576 0 .2.118.362.354.486s.638.238 1.206.342c1.096.2 1.878.492 2.346.876.468.384.702.924.702 1.62 0 .504-.144.94-.432 1.308-.288.368-.686.648-1.194.84-.508.192-1.082.288-1.722.288-.896 0-1.624-.11-2.184-.33a3.78 3.78 0 0 1-1.452-1.014l1.056-1.44c.312.432.664.736 1.056.912.392.176.864.264 1.416.264.44 0 .77-.062.99-.186.22-.124.33-.302.33-.534 0-.184-.118-.334-.354-.45-.236-.116-.63-.226-1.182-.33-.68-.136-1.242-.298-1.686-.486-.444-.188-.788-.442-1.032-.762s-.366-.728-.366-1.224.134-.94.402-1.332c.268-.392.66-.698 1.176-.918.516-.22 1.126-.33 1.83-.33zm-25.08 11.6c.752 0 1.394.112 1.926.336.532.224 1.026.588 1.482 1.092l-1.164 1.344c-.264-.4-.574-.694-.93-.882-.356-.188-.782-.282-1.278-.282-.416 0-.736.072-.96.216-.224.144-.336.336-.336.576 0 .2.118.362.354.486s.638.238 1.206.342c1.096.2 1.878.492 2.346.876.468.384.702.924.702 1.62 0 .504-.144.94-.432 1.308-.288.368-.686.648-1.194.84-.508.192-1.082.288-1.722.288-.896 0-1.624-.11-2.184-.33a3.78 3.78 0 0 1-1.452-1.014l1.056-1.44c.312.432.664.736 1.056.912.392.176.864.264 1.416.264.44 0 .77-.062.99-.186.22-.124.33-.302.33-.534 0-.184-.118-.334-.354-.45-.236-.116-.63-.226-1.182-.33-.68-.136-1.242-.298-1.686-.486-.444-.188-.788-.442-1.032-.762s-.366-.728-.366-1.224.134-.94.402-1.332c.268-.392.66-.698 1.176-.918.516-.22 1.126-.33 1.83-.33zm8.268.12c.984 0 1.74.226 2.268.678.528.452.792 1.102.792 1.95 0 .808-.264 1.434-.792 1.878-.528.444-1.284.666-2.268.666h-1.572V44.2h-2.064v-7.92h3.636zm-.324 3.66c.448 0 .778-.086.99-.258.212-.172.318-.438.318-.798 0-.352-.106-.614-.318-.786-.212-.172-.542-.258-.99-.258h-1.248v2.1h1.248zm8.256-3.78c.8 0 1.49.162 2.07.486.58.324 1.026.792 1.338 1.404.312.612.468 1.342.468 2.19 0 .848-.156 1.578-.468 2.19a3.266 3.266 0 0 1-1.338 1.404c-.58.324-1.27.486-2.07.486-.8 0-1.492-.162-2.076-.486a3.257 3.257 0 0 1-1.344-1.404c-.312-.612-.468-1.342-.468-2.19 0-.848.156-1.578.468-2.19.312-.612.76-1.08 1.344-1.404.584-.324 1.276-.486 2.076-.486zm0 1.62c-.576 0-1.016.208-1.32.624-.304.416-.456 1.028-.456 1.836s.152 1.42.456 1.836c.304.416.744.624 1.32.624.576 0 1.014-.208 1.314-.624.3-.416.45-1.028.45-1.836s-.15-1.42-.45-1.836c-.3-.416-.738-.624-1.314-.624zm11.952.096h-2.58V44.2h-2.064v-6.324h-2.592V36.28h7.236v1.596zm4.272-1.716c.752 0 1.394.112 1.926.336.532.224 1.026.588 1.482 1.092l-1.164 1.344c-.264-.4-.574-.694-.93-.882-.356-.188-.782-.282-1.278-.282-.416 0-.736.072-.96.216-.224.144-.336.336-.336.576 0 .2.118.362.354.486s.638.238 1.206.342c1.096.2 1.878.492 2.346.876.468.384.702.924.702 1.62 0 .504-.144.94-.432 1.308-.288.368-.686.648-1.194.84-.508.192-1.082.288-1.722.288-.896 0-1.624-.11-2.184-.33a3.78 3.78 0 0 1-1.452-1.014l1.056-1.44c.312.432.664.736 1.056.912.392.176.864.264 1.416.264.44 0 .77-.062.99-.186.22-.124.33-.302.33-.534 0-.184-.118-.334-.354-.45-.236-.116-.63-.226-1.182-.33-.68-.136-1.242-.298-1.686-.486-.444-.188-.788-.442-1.032-.762s-.366-.728-.366-1.224.134-.94.402-1.332c.268-.392.66-.698 1.176-.918.516-.22 1.126-.33 1.83-.33zM32.956 48.633h-2.924V55.8h-2.34v-7.167h-2.937v-1.809h8.201v1.809zm6.365 7.167h-2.747l-3.196-8.976h2.461l1.646 5.426.49 1.768.475-1.74 1.673-5.454h2.38L39.321 55.8z"/></g></svg>