<svg xmlns="http://www.w3.org/2000/svg" width="34" height="33"><path fill="#55ACEE" fill-rule="evenodd" d="M16.75 0c9.113 0 16.5 7.387 16.5 16.5S25.863 33 16.75 33 .25 25.613.25 16.5 7.637 0 16.75 0zM25 11.016c-.278.166-1.112.495-1.89.577.5-.289 1.237-1.237 1.42-1.99-.48.329-1.58.81-2.124.81v.002c-.62-.699-1.492-1.134-2.46-1.134-1.88 0-3.404 1.641-3.404 3.666 0 .28.03.554.087.817h-.001c-2.55-.07-5.53-1.447-7.21-3.803-1.032 1.924-.14 4.063 1.031 4.843-.4.033-1.138-.05-1.486-.413-.024 1.276.547 2.968 2.626 3.581-.401.233-1.108.166-1.417.115.108 1.08 1.51 2.49 3.042 2.49-.546.678-2.409 1.914-4.714 1.52 1.566 1.028 3.392 1.621 5.324 1.621 5.492 0 9.757-4.792 9.527-10.704l-.002-.02.002-.047-.002-.055A6.127 6.127 0 0 0 25 11.016z"/></svg>