<svg xmlns="http://www.w3.org/2000/svg" width="26" height="30"><path fill="#E5004D" fill-rule="evenodd" stroke="#E5004D" stroke-width=".2" d="M3.341 7.405h-.097c-.404.006-.78.008-1.073.012v-5.25h15.621a4.08 4.08 0 0 1 2.897 1.196l1.94 1.933a4.05 4.05 0 0 1 1.2 2.887v2.442a.877.877 0 0 1-.878.875.877.877 0 0 1-.878-.875V8.966a2.892 2.892 0 0 0-.857-2.062l-1.556-1.55a2.913 2.913 0 0 0-2.07-.854h-2.834a2.633 2.633 0 0 0-2.634 2.625 2.63 2.63 0 0 0 2.634 2.625h2.934a.877.877 0 0 1 .874.879.877.877 0 0 1-.881.871h-4.435A6.342 6.342 0 0 1 8.74 9.64a7.6 7.6 0 0 0-5.399-2.235zm16.39 10.512a.584.584 0 0 1-.585.583h-1.17a.558.558 0 0 1-.553-.746 4.052 4.052 0 0 0 2.275 0c.02.052.03.107.034.163zm2.342-1.167v3.5a.584.584 0 0 1-.585.583h-5.854a.584.584 0 0 1-.585-.583v-3.5c0-.966.786-1.75 1.756-1.75h3.512c.283.002.561.073.81.207-.266.493-.67.9-1.161 1.17a1.736 1.736 0 0 0-.82-.21h-1.17c-.97 0-1.757.783-1.757 1.75 0 .966.787 1.75 1.757 1.75h1.17c.97 0 1.756-.784 1.756-1.75 0-.224-.044-.445-.129-.652a4.116 4.116 0 0 0 1.178-1.142c.08.2.121.412.122.627zM19.146 27.01l-.585.583-.585-.583V22h1.17v5.009zm1.756-16.533a4.077 4.077 0 0 0-1.316-.597 2.043 2.043 0 0 0-1.898-1.296h-2.932a1.46 1.46 0 0 1-1.463-1.458 1.46 1.46 0 0 1 1.463-1.458h2.835a1.77 1.77 0 0 1 1.242.512l1.555 1.55c.328.329.513.773.514 1.237v1.51zm-3.22 2.19a2.047 2.047 0 0 0 1.978-1.53 2.896 2.896 0 0 1 1.828 2.697c0 .08-.018.156-.024.234a2.913 2.913 0 0 0-1.147-.234h-3.512c-.396 0-.788.08-1.151.237-.006-.08-.02-.157-.02-.237.001-.401.085-.798.247-1.166h1.802zm-3.043 0a3.805 3.805 0 0 0-.034 2.18 2.883 2.883 0 0 0-.727 1.904v3.5c0 .967.786 1.75 1.756 1.75h1.17v5.25c0 .155.063.303.172.413l1.171 1.166c.229.228.6.228.828 0l1.17-1.166a.582.582 0 0 0 .172-.413V22h1.17c.97 0 1.757-.783 1.757-1.75v-3.5a2.884 2.884 0 0 0-.72-1.895c.088-.333.133-.677.134-1.022 0-.417-.065-.832-.191-1.23A2.028 2.028 0 0 0 25 10.625V8.183a5.204 5.204 0 0 0-1.543-3.712l-1.94-1.933A5.243 5.243 0 0 0 17.792 1H1.585A.584.584 0 0 0 1 1.583V8c0 .322.262.583.585.583 0 0 .77 0 1.673-.01a6.406 6.406 0 0 1 4.656 1.892 7.506 7.506 0 0 0 5.334 2.202h1.391z"/></svg>