<?xml version="1.0" encoding="iso-8859-1"?>
<!-- Generator: Adobe Illustrator 19.0.0, SVG Export Plug-In . SVG Version: 6.00 Build 0)  -->
<svg version="1.1" id="Capa_1" xmlns="http://www.w3.org/2000/svg" xmlns:xlink="http://www.w3.org/1999/xlink" x="0px" y="0px"
	 viewBox="0 0 512 512" style="enable-background:new 0 0 512 512;" xml:space="preserve">
<path style="fill:#FFDECF;" d="M353.754,343.532l16.498-7.502c37.512-15.004,90.025-40.953,90.025-40.953
	c14.418-8.248,32.703-3.442,40.966,10.946c8.267,14.418,0,30.008-10.959,40.967c0,0-135.037,109.073-180.048,109.073
	s-180.049-30.008-180.049-30.008V291.018c75.02-12.454,100.691,7.502,210.057,42.462c6.008,2.55,10.052,6.154,12.601,10.521
	L353.754,343.532z"/>
<path style="fill:#FFCDBE;" d="M501.243,306.022c-3.019-5.261-7.384-9.201-12.395-11.737c-1.846,8.367-7.18,16.322-13.567,22.697
	c0,0-120.033,106.318-165.044,106.318c-35.868,0-143.74-16.264-180.049-24v26.755c0,0,135.038,30.008,180.049,30.008
	S490.284,346.99,490.284,346.99C501.243,336.03,509.509,320.44,501.243,306.022z"/>
<polygon style="fill:#E6E9ED;" points="130.187,426.055 130.187,440.619 100.18,440.619 100.18,276.014 130.187,276.014 
	130.187,291.018 "/>
<polygon style="fill:#656D78;" points="100.18,440.619 100.18,456.062 7.449,456.062 7.449,261.01 100.18,261.01 100.18,276.014 "/>
<circle style="fill:#FFCE54;" cx="235.22" cy="180.966" r="35.009"/>
<g>
	<path style="fill:#DCA746;" d="M235.219,215.978c19.335,0,35.009-15.674,35.009-35.009v30.008
		c0,19.335-15.674,35.009-35.009,35.009c-19.334,0-35.009-15.674-35.009-35.009v-30.008
		C200.21,200.304,215.885,215.978,235.219,215.978z"/>
	<path style="fill:#DCA746;" d="M430.269,115.952v30.008h-0.01c0,33.148-26.867,60.015-60.005,60.015
		c-33.148,0-60.025-26.867-60.025-60.015h0.01v-30.008c0,33.148,26.867,60.015,60.015,60.015
		C403.392,175.968,430.269,149.101,430.269,115.952z"/>
</g>
<path style="fill:#FFCE54;" d="M430.269,115.952c0,33.148-26.877,60.015-60.015,60.015c-33.148,0-60.015-26.867-60.015-60.015
	c0-33.138,26.867-60.015,60.015-60.015C403.392,55.937,430.269,82.814,430.269,115.952z"/>
<path style="fill:#F6BB42;" d="M370.254,55.937c-5.182,0-10.211,0.657-15.007,1.892c25.882,6.665,45.012,30.165,45.012,58.123
	c0,27.966-19.13,51.461-45.012,58.124c4.796,1.234,9.824,1.891,15.007,1.891c33.138,0,60.015-26.867,60.015-60.015
	C430.269,82.814,403.392,55.937,370.254,55.937z"/>
<path d="M235.268,253.504c23.441,0,42.512-19.07,42.512-42.511v-30.008c0-23.442-19.071-42.513-42.512-42.513
	s-42.511,19.071-42.511,42.513v30.008C192.757,234.433,211.828,253.504,235.268,253.504z M235.268,238.5
	c-14.336,0-26.139-11.026-27.391-25.039c7.404,6.255,16.962,10.036,27.391,10.036c10.429,0,19.987-3.781,27.392-10.037
	C261.408,227.474,249.605,238.5,235.268,238.5z M235.268,153.476c15.168,0,27.508,12.34,27.508,27.509
	c0,15.167-12.34,27.507-27.508,27.507c-15.168,0-27.507-12.34-27.507-27.507C207.761,165.816,220.101,153.476,235.268,153.476z"/>
<path d="M235.268,198.489c4.143,0,7.502-3.358,7.502-7.502v-20.005c0-4.144-3.359-7.502-7.502-7.502
	c-4.143,0-7.502,3.358-7.502,7.502v20.005C227.766,195.131,231.125,198.489,235.268,198.489z"/>
<path d="M370.302,213.491c37.189,0,67.447-30.223,67.513-67.396c0-0.04,0.006-0.079,0.006-0.119v-30.01
	c0-37.23-30.288-67.517-67.517-67.517c-37.231,0-67.519,30.288-67.519,67.517v29.988c0,0.007-0.001,0.013-0.001,0.02
	C302.783,183.203,333.072,213.491,370.302,213.491z M370.302,198.487c-23.773,0-43.895-15.884-50.342-37.592
	c12.374,13.851,30.354,22.59,50.344,22.59c19.986,0,37.964-8.736,50.336-22.583C414.192,182.607,394.072,198.487,370.302,198.487z
	 M370.304,63.453c28.956,0,52.513,23.558,52.513,52.513c0,28.956-23.557,52.515-52.513,52.515
	c-28.957,0-52.515-23.559-52.515-52.515C317.788,87.01,341.347,63.453,370.304,63.453z"/>
<path d="M370.298,143.477h0.001c4.143,0,7.501-3.358,7.502-7.5l0.008-40.015c0.001-4.143-3.358-7.502-7.501-7.503h-0.001
	c-4.143,0-7.501,3.357-7.502,7.5l-0.008,40.015C362.797,140.117,366.155,143.476,370.298,143.477z"/>
<path d="M507.68,302.31c-10.294-17.823-33.128-24.008-51.007-13.861c-3.25,1.602-44.752,21.998-78.956,36.391
	c-3.819,1.607-5.611,6.006-4.005,9.824c1.606,3.819,6.004,5.61,9.825,4.005c35.859-15.09,79.548-36.652,79.985-36.868
	c0.143-0.071,0.284-0.146,0.422-0.225c10.749-6.197,24.541-2.504,30.745,8.24c7.184,12.425-4.034,26.067-9.525,31.639
	c-37.246,30.045-140.311,107.091-174.953,107.091c-38.398,0-146.149-22.827-172.5-28.537V297.471
	c52.248-7.677,79.928,1.953,137.933,22.166c17.646,6.149,37.637,13.114,61.935,20.883c3.622,1.578,13.671,7.234,9.841,20.019
	c-2.328,7.772-9.833,15.193-20.824,13.136c-14.769-2.772-101.685-14.561-105.378-15.061c-4.104-0.56-7.885,2.321-8.441,6.427
	c-0.556,4.106,2.321,7.885,6.427,8.441c0.9,0.122,90.228,12.237,104.626,14.94c2.235,0.419,4.404,0.617,6.501,0.617
	c15.927,0,27.64-11.431,31.464-24.194c4.023-13.431-0.158-30.433-18.535-38.213c-0.026-0.012-0.053-0.024-0.08-0.035
	c-0.023-0.01-0.045-0.021-0.069-0.031c-0.101-0.042-0.204-0.072-0.306-0.11c-0.104-0.038-0.203-0.082-0.31-0.116
	c-24.271-7.753-44.268-14.722-61.912-20.87c-57.846-20.157-88.331-30.762-142.871-23.149v-6.272c0-4.144-3.359-7.502-7.502-7.502
	H107.71v-7.498c0-4.144-3.359-7.502-7.502-7.502H7.502c-4.143,0-7.502,3.358-7.502,7.502v164.991c0,4.144,3.359,7.502,7.502,7.502
	s7.502-3.358,7.502-7.502V268.55h77.702v179.997H77.711v-7.498c0-4.144-3.359-7.502-7.502-7.502s-7.502,3.358-7.502,7.502v7.498
	H7.502c-4.143,0-7.502,3.358-7.502,7.502s3.359,7.502,7.502,7.502h92.706c4.143,0,7.502-3.358,7.502-7.502v-7.879h22.499
	c4.143,0,7.502-3.358,7.502-7.502v-5.301c31.388,6.782,133.544,28.184,172.5,28.184c20.502,0,56.856-18.267,111.137-55.841
	c39.147-27.099,73.223-54.566,73.562-54.84c0.208-0.168,0.406-0.347,0.594-0.535C511.803,336.016,516.354,317.314,507.68,302.31z
	 M107.71,433.167V283.55h14.997v142.374c0,0.007,0,0.014,0,0.02v7.223L107.71,433.167L107.71,433.167z"/>
<g>
</g>
<g>
</g>
<g>
</g>
<g>
</g>
<g>
</g>
<g>
</g>
<g>
</g>
<g>
</g>
<g>
</g>
<g>
</g>
<g>
</g>
<g>
</g>
<g>
</g>
<g>
</g>
<g>
</g>
</svg>
