<svg height="512pt" viewBox="0 -35 512.002 512" width="512pt" xmlns="http://www.w3.org/2000/svg"><path d="m489.195312 0h-466.390624c-12.574219 0-22.804688 10.230469-22.804688 22.804688v113.429687c0 4.144531 3.359375 7.5 7.5 7.5s7.5-3.355469 7.5-7.5v-113.429687c0-4.304688 3.5-7.804688 7.804688-7.804688h80.023437v36.792969h-2.078125c-12.605469 0-22.859375 10.253906-22.859375 22.855469v49.46875c0 12.605468 10.253906 22.859374 22.859375 22.859374h9.730469v139.660157h-95.480469v-117.738281c0-4.144532-3.359375-7.5-7.5-7.5s-7.5 3.355468-7.5 7.5v175.976562c0 9.761719 7.941406 17.703125 17.703125 17.703125h97.726563c6.199218 10.460937 17.597656 17.496094 30.617187 17.496094s24.417969-7.035157 30.617187-17.496094h13.871094v14.273437c0 6.765626 4.230469 12.550782 10.175782 14.886719-3.476563 8.402344-7.625 15.6875-12.390626 21.707031-4.214843 5.316407-4.992187 12.4375-2.023437 18.574219 3.003906 6.207031 9.140625 10.0625 16.015625 10.0625h107.375c6.878906 0 13.015625-3.855469 16.015625-10.0625 2.96875-6.140625 2.195313-13.257812-2.019531-18.578125-11.820313-14.914062-17.808594-34.71875-20.851563-50.863281h98.921875c4.144532 0 7.5-3.359375 7.5-7.5 0-4.144531-3.355468-7.5-7.5-7.5h-152.851562v-45.9375h248.097656v43.234375c0 1.488281-1.210938 2.703125-2.703125 2.703125h-59.882813c-4.140624 0-7.5 3.355469-7.5 7.5 0 4.140625 3.359376 7.5 7.5 7.5h59.882813c9.765625 0 17.707031-7.941406 17.707031-17.703125v-322.070312c-.003906-12.574219-10.234375-22.804688-22.808594-22.804688zm-371.367187 15h198.429687v36.792969h-198.429687zm-24.9375 109.117188v-49.464844c0-4.335938 3.523437-7.859375 7.859375-7.859375h240.332031c4.332031 0 7.855469 3.523437 7.855469 7.859375v49.464844c0 4.335937-3.523438 7.859374-7.855469 7.859374h-106.160156c-4.144531 0-7.5 3.359376-7.5 7.5 0 4.144532 3.355469 7.5 7.5 7.5h20.976563v39.441407h-15.945313c-14.632813 0-26.535156 11.902343-26.535156 26.535156v42.273437h-6.878907c-8.824218 0-16 7.179688-16 16.003907v15.40625h-8.925781v-139.660157h20.648438c4.140625 0 7.5-3.355468 7.5-7.5 0-4.140624-3.359375-7.5-7.5-7.5h-101.511719c-4.335938 0-7.859375-3.523437-7.859375-7.859374zm281.308594-39.230469v29h-10.257813v-29zm-10.761719 44h11.539062c7.84375 0 14.226563-6.382813 14.226563-14.226563v-7.773437h3.765625c6.363281 0 11.539062 5.175781 11.539062 11.539062v56.453125c0 6.363282-5.175781 11.539063-11.539062 11.539063h-65.9375v-39.4375h14.050781c10.96875-.003907 20.15625-7.769531 22.355469-18.09375zm-92.539062 72.53125h41.128906v11.941406c0 11.339844-9.226563 20.5625-20.5625 20.5625-11.339844 0-20.566406-9.226563-20.566406-20.5625zm0-15v-39.4375h41.128906v39.4375zm-64.359376 191.4375c-.554687 0-1-.449219-1-1.003907v-10.808593h8.5c4.140626 0 7.5-3.355469 7.5-7.5 0-4.140625-3.359374-7.5-7.5-7.5h-8.5v-8h8.5c4.140626 0 7.5-3.359375 7.5-7.5 0-4.144531-3.359374-7.5-7.5-7.5h-8.5v-8.003907h8.5c4.140626 0 7.5-3.355468 7.5-7.5 0-4.140624-3.359374-7.5-7.5-7.5h-8.5v-8h8.5c4.140626 0 7.5-3.355468 7.5-7.5 0-4.144531-3.359374-7.5-7.5-7.5h-8.5v-10.808593c0-.550781.449219-1.003907 1-1.003907h26.359376c.550781 0 1 .453126 1 1.003907v105.621093c0 .550782-.449219 1.003907-1 1.003907zm-188.835937-30.277344c-1.488281 0-2.703125-1.214844-2.703125-2.703125v-43.234375h95.480469v42.871094c0 1.035156.054687 2.054687.140625 3.066406zm128.34375 17.496094c-11.339844 0-20.566406-9.222657-20.566406-20.5625v-197.53125h41.128906v197.53125c0 11.339843-9.222656 20.5625-20.5625 20.5625zm35.421875-17.496094c.089844-1.011719.140625-2.03125.140625-3.066406v-42.871094h8.925781v45.9375zm106.121094 15c3.199218 18.386719 9.972656 42.050781 24.335937 60.179687.816407 1.035157.601563 2.058594.273438 2.730469-.230469.480469-.941407 1.59375-2.511719 1.59375h-107.375c-1.570312 0-2.28125-1.113281-2.511719-1.59375-.328125-.675781-.542969-1.695312.273438-2.730469 6.507812-8.210937 11.976562-18.265624 16.304687-29.902343h16.519532c8.824218 0 16-7.179688 16-16.003907v-14.273437zm-38.691406-75.941406v-15.402344c0-8.824219-7.175782-16.003906-16-16.003906h-4.480469v-42.273438c0-6.363281 5.171875-11.539062 11.535156-11.539062h15.945313v11.941406c0 19.609375 15.957031 35.5625 35.566406 35.5625s35.5625-15.953125 35.5625-35.5625v-11.941406h65.941406c14.632812 0 26.535156-11.902344 26.535156-26.535157v-56.457031c0-14.632812-11.902344-26.539062-26.535156-26.539062h-3.769531v-7.773438c0-7.84375-6.382813-14.226562-14.226563-14.226562h-11.539062c-2.199219-10.324219-11.382813-18.09375-22.355469-18.09375h-9.820313v-36.792969h157.933594c4.304688 0 7.808594 3.503906 7.808594 7.804688v263.832031zm0 0"/><path d="m337.867188 83.386719c0-4.144531-3.355469-7.5-7.5-7.5h-219.335938c-4.144531 0-7.5 3.355469-7.5 7.5 0 4.140625 3.355469 7.5 7.5 7.5h219.335938c4.140624 0 7.5-3.359375 7.5-7.5zm0 0"/><path d="m412.003906 225.328125h-55.5625c-4.144531 0-7.5 3.355469-7.5 7.5 0 4.140625 3.355469 7.5 7.5 7.5h55.5625c4.144532 0 7.5-3.359375 7.5-7.5 0-4.144531-3.355468-7.5-7.5-7.5zm0 0"/><path d="m412.003906 248.328125h-27.78125c-4.144531 0-7.5 3.355469-7.5 7.5s3.355469 7.5 7.5 7.5h27.78125c4.144532 0 7.5-3.355469 7.5-7.5s-3.355468-7.5-7.5-7.5zm0 0"/><path d="m412.003906 33.324219h-27.78125c-4.144531 0-7.5 3.355469-7.5 7.5s3.355469 7.5 7.5 7.5h27.78125c4.144532 0 7.5-3.355469 7.5-7.5s-3.355468-7.5-7.5-7.5zm0 0"/></svg>